<?xml version="1.0" encoding="utf-8"?>
<!-- Generator: Adobe Illustrator 14.0.0, SVG Export Plug-In . SVG Version: 6.00 Build 43363)  -->
<!DOCTYPE svg PUBLIC "-//W3C//DTD SVG 1.1//EN" "http://www.w3.org/Graphics/SVG/1.1/DTD/svg11.dtd">
<svg version="1.1" id="Layer_1" xmlns="http://www.w3.org/2000/svg" xmlns:xlink="http://www.w3.org/1999/xlink" x="0px" y="0px"
	 width="864px" height="576px" viewBox="0 0 864 576" enable-background="new 0 0 864 576" xml:space="preserve">
<g id="figure_1">
	<g id="patch_1">
		<path fill="#FFFFFF" d="M0,576h864V0H0V576z"/>
	</g>
	<g id="axes_1">
		<g id="matplotlib.axis_1">
			<g id="xtick_1">
				<g id="line2d_1">
					<g>
						<g>
							<path id="m44e644c0f3" stroke="#000000" stroke-width="0.8" stroke-linejoin="round" d="M138.437,512.64v3.5"/>
						</g>
					</g>
				</g>
				<g id="text_1">
					<g transform="translate(130.484801 527.238438)scale(0.1 -0.1)">
						<g>
							<path id="DejaVuSans-48" d="M31.783,66.408c-5.073,0-8.892-2.5-11.455-7.5c-2.554-4.99-3.828-12.5-3.828-22.529
								c0-9.99,1.274-17.49,3.828-22.49c2.563-5,6.382-7.5,11.455-7.5c5.112,0,8.945,2.5,11.499,7.5c2.563,5,3.843,12.5,3.843,22.49
								c0,10.029-1.279,17.539-3.843,22.529C40.728,63.908,36.895,66.408,31.783,66.408z M31.783,74.221
								c8.174,0,14.419-3.232,18.73-9.707c4.316-6.455,6.47-15.84,6.47-28.135c0-12.275-2.153-21.641-6.47-28.115
								c-4.312-6.455-10.557-9.688-18.73-9.688c-8.169,0-14.409,3.232-18.721,9.688c-4.312,6.475-6.47,15.84-6.47,28.115
								c0,12.295,2.158,21.68,6.47,28.135C17.374,70.988,23.614,74.221,31.783,74.221z"/>
						</g>
						<g>
							<path id="DejaVuSans-46" d="M74.312,12.404h10.312V0.002H74.312V12.404z"/>
						</g>
						<g>
							<path id="DejaVuSans-48_1_" d="M127.193,66.408c-5.073,0-8.892-2.5-11.455-7.5c-2.554-4.99-3.828-12.5-3.828-22.529
								c0-9.99,1.274-17.49,3.828-22.49c2.563-5,6.382-7.5,11.455-7.5c5.112,0,8.945,2.5,11.499,7.5c2.563,5,3.843,12.5,3.843,22.49
								c0,10.029-1.279,17.539-3.843,22.529C136.138,63.908,132.305,66.408,127.193,66.408z M127.193,74.221
								c8.174,0,14.419-3.232,18.73-9.707c4.316-6.455,6.47-15.84,6.47-28.135c0-12.275-2.153-21.641-6.47-28.115
								c-4.312-6.455-10.557-9.688-18.73-9.688c-8.169,0-14.409,3.232-18.721,9.688c-4.312,6.475-6.47,15.84-6.47,28.115
								c0,12.295,2.158,21.68,6.47,28.135C112.784,70.988,119.024,74.221,127.193,74.221z"/>
						</g>
					</g>
				</g>
			</g>
			<g id="xtick_2">
				<g id="line2d_2">
					<g>
						<g>
							<path id="m44e644c0f3_1_" stroke="#000000" stroke-width="0.8" stroke-linejoin="round" d="M277.448,512.64v3.5"/>
						</g>
					</g>
				</g>
				<g id="text_2">
					<g transform="translate(269.496483 527.238438)scale(0.1 -0.1)">
						<g>
							<path id="DejaVuSans-48_2_" d="M31.783,66.408c-5.073,0-8.892-2.5-11.455-7.5c-2.554-4.99-3.828-12.5-3.828-22.529
								c0-9.99,1.274-17.49,3.828-22.49c2.563-5,6.382-7.5,11.455-7.5c5.112,0,8.945,2.5,11.499,7.5c2.563,5,3.843,12.5,3.843,22.49
								c0,10.029-1.279,17.539-3.843,22.529C40.729,63.908,36.896,66.408,31.783,66.408z M31.783,74.221
								c8.174,0,14.419-3.232,18.73-9.707c4.316-6.455,6.47-15.84,6.47-28.135c0-12.275-2.153-21.641-6.47-28.115
								c-4.312-6.455-10.557-9.688-18.73-9.688c-8.169,0-14.409,3.232-18.721,9.688c-4.312,6.475-6.47,15.84-6.47,28.115
								c0,12.295,2.158,21.68,6.47,28.135C17.374,70.988,23.614,74.221,31.783,74.221z"/>
						</g>
						<g>
							<path id="DejaVuSans-46_1_" d="M74.312,12.404h10.312V0.002H74.312V12.404z"/>
						</g>
						<g>
							<path id="DejaVuSans-53" d="M106.207,72.902h38.721v-8.311H115.24V46.73c1.426,0.498,2.852,0.859,4.277,1.094
								c1.44,0.244,2.876,0.361,4.316,0.361c8.135,0,14.575-2.227,19.326-6.689c4.761-4.453,7.139-10.488,7.139-18.105
								c0-7.842-2.441-13.945-7.324-18.301c-4.888-4.336-11.772-6.514-20.659-6.514c-3.062,0-6.182,0.264-9.36,0.781
								c-3.164,0.527-6.44,1.309-9.824,2.344v9.922c2.925-1.592,5.952-2.783,9.077-3.564s6.426-1.172,9.907-1.172
								c5.635,0,10.093,1.484,13.374,4.443c3.291,2.959,4.937,6.973,4.937,12.061c0,5.068-1.646,9.092-4.937,12.051
								c-3.281,2.969-7.739,4.453-13.374,4.453c-2.637,0-5.269-0.293-7.891-0.879c-2.617-0.586-5.288-1.494-8.018-2.734V72.902z"/>
						</g>
					</g>
				</g>
			</g>
			<g id="xtick_3">
				<g id="line2d_3">
					<g>
						<g>
							<path id="m44e644c0f3_2_" stroke="#000000" stroke-width="0.8" stroke-linejoin="round" d="M416.46,512.64v3.5"/>
						</g>
					</g>
				</g>
				<g id="text_3">
					<g transform="translate(408.508166 527.238438)scale(0.1 -0.1)">
						<g>
							<path id="DejaVuSans-49" d="M12.409,8.293h16.104v55.625l-17.529-3.516v8.984l17.441,3.516h9.854V8.293h16.113V0.002H12.409
								V8.293z"/>
						</g>
						<g>
							<path id="DejaVuSans-46_2_" d="M74.313,12.404h10.312V0.002H74.313V12.404z"/>
						</g>
						<g>
							<path id="DejaVuSans-48_3_" d="M127.194,66.408c-5.078,0-8.896-2.5-11.455-7.5c-2.549-4.99-3.828-12.5-3.828-22.529
								c0-9.99,1.279-17.49,3.828-22.49c2.559-5,6.377-7.5,11.455-7.5c5.107,0,8.945,2.5,11.494,7.5c2.568,5,3.848,12.5,3.848,22.49
								c0,10.029-1.279,17.539-3.848,22.529C136.139,63.908,132.301,66.408,127.194,66.408z M127.194,74.221
								c8.174,0,14.424-3.232,18.73-9.707c4.316-6.455,6.475-15.84,6.475-28.135c0-12.275-2.158-21.641-6.475-28.115
								c-4.307-6.455-10.557-9.688-18.73-9.688s-14.404,3.232-18.721,9.688c-4.316,6.475-6.465,15.84-6.465,28.115
								c0,12.295,2.148,21.68,6.465,28.135C112.79,70.988,119.02,74.221,127.194,74.221z"/>
						</g>
					</g>
				</g>
			</g>
			<g id="xtick_4">
				<g id="line2d_4">
					<g>
						<g>
							<path id="m44e644c0f3_3_" stroke="#000000" stroke-width="0.8" stroke-linejoin="round" d="M555.472,512.64v3.5"/>
						</g>
					</g>
				</g>
				<g id="text_4">
					<g transform="translate(547.519848 527.238438)scale(0.1 -0.1)">
						<g>
							<path id="DejaVuSans-49_1_" d="M12.41,8.293h16.104v55.625l-17.529-3.516v8.984l17.441,3.516h9.854V8.293h16.113V0.002H12.41
								V8.293z"/>
						</g>
						<g>
							<path id="DejaVuSans-46_3_" d="M74.314,12.404h10.312V0.002H74.314V12.404z"/>
						</g>
						<g>
							<path id="DejaVuSans-53_1_" d="M106.208,72.902h38.721v-8.311h-29.688V46.73c1.426,0.498,2.852,0.859,4.277,1.094
								c1.436,0.244,2.881,0.361,4.316,0.361c8.135,0,14.58-2.227,19.326-6.689c4.756-4.453,7.139-10.488,7.139-18.105
								c0-7.842-2.441-13.945-7.324-18.301c-4.893-4.336-11.777-6.514-20.654-6.514c-3.066,0-6.191,0.264-9.365,0.781
								c-3.164,0.527-6.445,1.309-9.824,2.344v9.922c2.92-1.592,5.947-2.783,9.072-3.564s6.426-1.172,9.912-1.172
								c5.635,0,10.088,1.484,13.369,4.443c3.291,2.959,4.941,6.973,4.941,12.061c0,5.068-1.65,9.092-4.941,12.051
								c-3.281,2.969-7.734,4.453-13.369,4.453c-2.637,0-5.264-0.293-7.891-0.879c-2.617-0.586-5.293-1.494-8.018-2.734V72.902z"/>
						</g>
					</g>
				</g>
			</g>
			<g id="xtick_5">
				<g id="line2d_5">
					<g>
						<g>
							<path id="m44e644c0f3_4_" stroke="#000000" stroke-width="0.8" stroke-linejoin="round" d="M694.484,512.64v3.5"/>
						</g>
					</g>
				</g>
				<g id="text_5">
					<g transform="translate(686.53153 527.238438)scale(0.1 -0.1)">
						<g>
							<path id="DejaVuSans-50" d="M19.188,8.293h34.424V0.002H7.332v8.291c3.74,3.877,8.838,9.072,15.293,15.596
								c6.475,6.533,10.537,10.742,12.188,12.646c3.154,3.535,5.361,6.533,6.611,8.994c1.26,2.461,1.895,4.873,1.895,7.256
								c0,3.867-1.367,7.031-4.082,9.463c-2.715,2.451-6.26,3.672-10.625,3.672c-3.096,0-6.357-0.537-9.795-1.611
								c-3.428-1.064-7.1-2.695-11.006-4.883v9.961c3.975,1.602,7.676,2.803,11.133,3.613s6.611,1.221,9.482,1.221
								c7.549,0,13.574-1.895,18.057-5.674c4.492-3.77,6.738-8.809,6.738-15.127c0-2.998-0.566-5.84-1.689-8.525
								c-1.113-2.686-3.154-5.84-6.123-9.492c-0.811-0.947-3.398-3.672-7.764-8.184C33.289,22.707,27.137,16.398,19.188,8.293z"/>
						</g>
						<g>
							<path id="DejaVuSans-46_4_" d="M74.314,12.404h10.312V0.002H74.314V12.404z"/>
						</g>
						<g>
							<path id="DejaVuSans-48_4_" d="M127.195,66.408c-5.078,0-8.896-2.5-11.455-7.5c-2.549-4.99-3.828-12.5-3.828-22.529
								c0-9.99,1.279-17.49,3.828-22.49c2.559-5,6.377-7.5,11.455-7.5c5.107,0,8.945,2.5,11.494,7.5c2.568,5,3.848,12.5,3.848,22.49
								c0,10.029-1.279,17.539-3.848,22.529C136.141,63.908,132.303,66.408,127.195,66.408z M127.195,74.221
								c8.174,0,14.424-3.232,18.73-9.707c4.316-6.455,6.475-15.84,6.475-28.135c0-12.275-2.158-21.641-6.475-28.115
								c-4.307-6.455-10.557-9.688-18.73-9.688s-14.404,3.232-18.721,9.688c-4.316,6.475-6.465,15.84-6.465,28.115
								c0,12.295,2.148,21.68,6.465,28.135C112.791,70.988,119.021,74.221,127.195,74.221z"/>
						</g>
					</g>
				</g>
			</g>
			<g id="text_6">
				<g transform="translate(424.609375 540.916563)scale(0.1 -0.1)">
					<g>
						<path id="DejaVuSans-120" d="M54.894,54.683L35.109,28.081L55.909-0.005H45.314L29.396,21.48L13.488-0.005H2.872l21.25,28.613
							L4.689,54.683h10.596l14.502-19.482l14.492,19.482H54.894z"/>
					</g>
					<g>
						<path id="DejaVuSans-32" d="M59.181-0.005"/>
					</g>
					<g>
						<path id="DejaVuSans-40" d="M121.964,75.874c-4.346-7.48-7.588-14.883-9.717-22.217c-2.109-7.324-3.174-14.746-3.174-22.266
							c0-7.51,1.074-14.951,3.203-22.334c2.139-7.373,5.371-14.785,9.688-22.246h-7.812c-4.873,7.656-8.525,15.176-10.947,22.559
							c-2.432,7.393-3.643,14.727-3.643,22.021c0,7.256,1.201,14.57,3.613,21.924c2.412,7.363,6.074,14.883,10.977,22.559H121.964z"
							/>
					</g>
					<g>
						<path id="DejaVuSans-109" d="M181.984,44.185c2.246,4.043,4.932,7.021,8.057,8.936c3.125,1.924,6.807,2.881,11.035,2.881
							c5.693,0,10.098-1.992,13.184-5.986c3.096-3.975,4.648-9.648,4.648-17.002V-0.005h-9.033V32.72
							c0,5.234-0.938,9.121-2.803,11.65c-1.846,2.549-4.678,3.818-8.477,3.818c-4.658,0-8.34-1.553-11.055-4.639
							c-2.695-3.086-4.043-7.305-4.043-12.646V-0.005h-9.033V32.72c0,5.273-0.928,9.16-2.783,11.689
							c-1.846,2.52-4.717,3.779-8.594,3.779c-4.59,0-8.242-1.553-10.947-4.658c-2.695-3.105-4.053-7.314-4.053-12.627V-0.005h-9.023
							v54.688h9.023v-8.496c2.061,3.35,4.512,5.83,7.383,7.422c2.861,1.592,6.26,2.393,10.195,2.393
							c3.984,0,7.363-1.016,10.146-3.037C178.595,50.962,180.646,48.033,181.984,44.185z"/>
					</g>
					<g>
						<path id="DejaVuSans-109_1_" d="M279.396,44.185c2.246,4.043,4.932,7.021,8.057,8.936c3.125,1.924,6.807,2.881,11.035,2.881
							c5.693,0,10.098-1.992,13.184-5.986c3.096-3.975,4.648-9.648,4.648-17.002V-0.005h-9.033V32.72
							c0,5.234-0.938,9.121-2.803,11.65c-1.846,2.549-4.678,3.818-8.477,3.818c-4.658,0-8.34-1.553-11.055-4.639
							c-2.695-3.086-4.043-7.305-4.043-12.646V-0.005h-9.033V32.72c0,5.273-0.928,9.16-2.783,11.689
							c-1.846,2.52-4.717,3.779-8.594,3.779c-4.59,0-8.242-1.553-10.947-4.658c-2.695-3.105-4.053-7.314-4.053-12.627V-0.005h-9.023
							v54.688h9.023v-8.496c2.061,3.35,4.512,5.83,7.383,7.422c2.861,1.592,6.26,2.393,10.195,2.393
							c3.984,0,7.363-1.016,10.146-3.037C276.007,50.962,278.058,48.033,279.396,44.185z"/>
					</g>
					<g>
						<path id="DejaVuSans-41" d="M332.823,75.874h7.812c4.873-7.676,8.525-15.195,10.947-22.559
							c2.432-7.354,3.643-14.668,3.643-21.924c0-7.295-1.211-14.629-3.643-22.021c-2.422-7.383-6.074-14.902-10.947-22.559h-7.812
							c4.316,7.461,7.549,14.873,9.688,22.246c2.129,7.383,3.203,14.824,3.203,22.334c0,7.52-1.074,14.941-3.203,22.266
							C340.372,60.992,337.14,68.394,332.823,75.874z"/>
					</g>
				</g>
			</g>
		</g>
		<g id="matplotlib.axis_2">
			<g id="ytick_1">
				<g id="line2d_6">
					<g>
						<g>
							<path id="m2ddd45fba1" stroke="#000000" stroke-width="0.8" stroke-linejoin="round" d="M108,502.162h-3.5"/>
						</g>
					</g>
				</g>
				<g id="text_7">
					<g transform="translate(78.734375 505.961016)scale(0.1 -0.1)">
						<g>
							<path id="DejaVuSans-48_5_" d="M31.784,66.407c-5.073,0-8.892-2.5-11.455-7.5c-2.549-4.99-3.828-12.5-3.828-22.529
								c0-9.99,1.279-17.49,3.828-22.49c2.563-5,6.382-7.5,11.455-7.5c5.112,0,8.945,2.5,11.499,7.5c2.563,5,3.843,12.5,3.843,22.49
								c0,10.029-1.279,17.539-3.843,22.529C40.729,63.907,36.896,66.407,31.784,66.407z M31.784,74.22
								c8.174,0,14.419-3.232,18.735-9.707c4.312-6.455,6.465-15.84,6.465-28.135c0-12.275-2.153-21.641-6.465-28.115
								c-4.316-6.455-10.562-9.688-18.735-9.688c-8.169,0-14.409,3.232-18.721,9.688c-4.312,6.475-6.47,15.84-6.47,28.115
								c0,12.295,2.158,21.68,6.47,28.135C17.375,70.987,23.615,74.22,31.784,74.22z"/>
						</g>
						<g>
							<path id="DejaVuSans-46_5_" d="M74.313,12.403h10.312V0.001H74.313V12.403z"/>
						</g>
						<g>
							<path id="DejaVuSans-48_6_" d="M127.194,66.407c-5.073,0-8.892-2.5-11.455-7.5c-2.549-4.99-3.828-12.5-3.828-22.529
								c0-9.99,1.279-17.49,3.828-22.49c2.563-5,6.382-7.5,11.455-7.5c5.112,0,8.945,2.5,11.499,7.5c2.563,5,3.843,12.5,3.843,22.49
								c0,10.029-1.279,17.539-3.843,22.529C136.139,63.907,132.306,66.407,127.194,66.407z M127.194,74.22
								c8.174,0,14.419-3.232,18.735-9.707c4.312-6.455,6.465-15.84,6.465-28.135c0-12.275-2.153-21.641-6.465-28.115
								c-4.316-6.455-10.562-9.688-18.735-9.688c-8.169,0-14.409,3.232-18.721,9.688c-4.312,6.475-6.47,15.84-6.47,28.115
								c0,12.295,2.158,21.68,6.47,28.135C112.785,70.987,119.025,74.22,127.194,74.22z"/>
						</g>
						<g>
							<path id="DejaVuSans-48_7_" d="M190.817,66.407c-5.073,0-8.892-2.5-11.455-7.5c-2.549-4.99-3.828-12.5-3.828-22.529
								c0-9.99,1.279-17.49,3.828-22.49c2.563-5,6.382-7.5,11.455-7.5c5.112,0,8.945,2.5,11.499,7.5c2.563,5,3.843,12.5,3.843,22.49
								c0,10.029-1.279,17.539-3.843,22.529C199.762,63.907,195.929,66.407,190.817,66.407z M190.817,74.22
								c8.174,0,14.419-3.232,18.735-9.707c4.312-6.455,6.465-15.84,6.465-28.135c0-12.275-2.153-21.641-6.465-28.115
								c-4.316-6.455-10.562-9.688-18.735-9.688c-8.169,0-14.409,3.232-18.721,9.688c-4.312,6.475-6.47,15.84-6.47,28.115
								c0,12.295,2.158,21.68,6.47,28.135C176.408,70.987,182.648,74.22,190.817,74.22z"/>
						</g>
					</g>
				</g>
			</g>
			<g id="ytick_2">
				<g id="line2d_7">
					<g>
						<g>
							<path id="m2ddd45fba1_1_" stroke="#000000" stroke-width="0.8" stroke-linejoin="round" d="M108,424.083h-3.5"/>
						</g>
					</g>
				</g>
				<g id="text_8">
					<g transform="translate(78.734375 427.882007)scale(0.1 -0.1)">
						<g>
							<path id="DejaVuSans-48_8_" d="M31.784,66.408c-5.073,0-8.892-2.5-11.455-7.5c-2.549-4.99-3.828-12.5-3.828-22.529
								c0-9.99,1.279-17.49,3.828-22.49c2.563-5,6.382-7.5,11.455-7.5c5.112,0,8.945,2.5,11.499,7.5c2.563,5,3.843,12.5,3.843,22.49
								c0,10.029-1.279,17.539-3.843,22.529C40.729,63.908,36.896,66.408,31.784,66.408z M31.784,74.22
								c8.174,0,14.419-3.232,18.735-9.707c4.312-6.455,6.465-15.84,6.465-28.135c0-12.275-2.153-21.641-6.465-28.115
								c-4.316-6.455-10.562-9.688-18.735-9.688c-8.169,0-14.409,3.232-18.721,9.688c-4.312,6.475-6.47,15.84-6.47,28.115
								c0,12.295,2.158,21.68,6.47,28.135C17.375,70.988,23.615,74.22,31.784,74.22z"/>
						</g>
						<g>
							<path id="DejaVuSans-46_6_" d="M74.313,12.404h10.312V0.002H74.313V12.404z"/>
						</g>
						<g>
							<path id="DejaVuSans-48_9_" d="M127.194,66.408c-5.073,0-8.892-2.5-11.455-7.5c-2.549-4.99-3.828-12.5-3.828-22.529
								c0-9.99,1.279-17.49,3.828-22.49c2.563-5,6.382-7.5,11.455-7.5c5.112,0,8.945,2.5,11.499,7.5c2.563,5,3.843,12.5,3.843,22.49
								c0,10.029-1.279,17.539-3.843,22.529C136.139,63.908,132.306,66.408,127.194,66.408z M127.194,74.22
								c8.174,0,14.419-3.232,18.735-9.707c4.312-6.455,6.465-15.84,6.465-28.135c0-12.275-2.153-21.641-6.465-28.115
								c-4.316-6.455-10.562-9.688-18.735-9.688c-8.169,0-14.409,3.232-18.721,9.688c-4.312,6.475-6.47,15.84-6.47,28.115
								c0,12.295,2.158,21.68,6.47,28.135C112.785,70.988,119.025,74.22,127.194,74.22z"/>
						</g>
						<g>
							<path id="DejaVuSans-53_2_" d="M169.831,72.902h38.721v-8.311h-29.688V46.73c1.426,0.498,2.852,0.859,4.282,1.094
								c1.436,0.244,2.871,0.361,4.312,0.361c8.135,0,14.575-2.227,19.326-6.689c4.761-4.453,7.144-10.488,7.144-18.105
								c0-7.842-2.446-13.945-7.329-18.301c-4.888-4.336-11.772-6.514-20.659-6.514c-3.062,0-6.182,0.264-9.355,0.781
								c-3.169,0.527-6.445,1.309-9.829,2.344v9.922c2.925-1.592,5.952-2.783,9.077-3.564s6.426-1.172,9.907-1.172
								c5.635,0,10.093,1.484,13.374,4.443c3.291,2.959,4.937,6.973,4.937,12.061c0,5.068-1.646,9.092-4.937,12.051
								c-3.281,2.969-7.739,4.453-13.374,4.453c-2.637,0-5.269-0.293-7.891-0.879c-2.617-0.586-5.288-1.494-8.018-2.734V72.902z"/>
						</g>
					</g>
				</g>
			</g>
			<g id="ytick_3">
				<g id="line2d_8">
					<g>
						<g>
							<path id="m2ddd45fba1_2_" stroke="#000000" stroke-width="0.8" stroke-linejoin="round" d="M108,346.004h-3.5"/>
						</g>
					</g>
				</g>
				<g id="text_9">
					<g transform="translate(78.734375 349.802999)scale(0.1 -0.1)">
						<g>
							<path id="DejaVuSans-48_10_" d="M31.784,66.409c-5.073,0-8.892-2.5-11.455-7.5c-2.549-4.99-3.828-12.5-3.828-22.539
								c0-9.98,1.279-17.48,3.828-22.48c2.563-5,6.382-7.5,11.455-7.5c5.112,0,8.945,2.5,11.499,7.5c2.563,5,3.843,12.5,3.843,22.48
								c0,10.039-1.279,17.549-3.843,22.539C40.729,63.909,36.896,66.409,31.784,66.409z M31.784,74.221
								c8.174,0,14.419-3.242,18.735-9.707c4.312-6.455,6.465-15.84,6.465-28.145c0-12.266-2.153-21.641-6.465-28.105
								c-4.316-6.455-10.562-9.688-18.735-9.688c-8.169,0-14.409,3.232-18.721,9.688c-4.312,6.465-6.47,15.84-6.47,28.105
								c0,12.305,2.158,21.689,6.47,28.145C17.375,70.979,23.615,74.221,31.784,74.221z"/>
						</g>
						<g>
							<path id="DejaVuSans-46_7_" d="M74.313,12.405h10.312V0.003H74.313V12.405z"/>
						</g>
						<g>
							<path id="DejaVuSans-49_2_" d="M107.819,8.303h16.108v55.625l-17.529-3.516v8.984l17.437,3.516h9.858V8.303h16.108V0.003
								h-41.982V8.303z"/>
						</g>
						<g>
							<path id="DejaVuSans-48_11_" d="M190.817,66.409c-5.073,0-8.892-2.5-11.455-7.5c-2.549-4.99-3.828-12.5-3.828-22.539
								c0-9.98,1.279-17.48,3.828-22.48c2.563-5,6.382-7.5,11.455-7.5c5.112,0,8.945,2.5,11.499,7.5c2.563,5,3.843,12.5,3.843,22.48
								c0,10.039-1.279,17.549-3.843,22.539C199.762,63.909,195.929,66.409,190.817,66.409z M190.817,74.221
								c8.174,0,14.419-3.242,18.735-9.707c4.312-6.455,6.465-15.84,6.465-28.145c0-12.266-2.153-21.641-6.465-28.105
								c-4.316-6.455-10.562-9.688-18.735-9.688c-8.169,0-14.409,3.232-18.721,9.688c-4.312,6.465-6.47,15.84-6.47,28.105
								c0,12.305,2.158,21.689,6.47,28.145C176.408,70.979,182.648,74.221,190.817,74.221z"/>
						</g>
					</g>
				</g>
			</g>
			<g id="ytick_4">
				<g id="line2d_9">
					<g>
						<g>
							<path id="m2ddd45fba1_3_" stroke="#000000" stroke-width="0.8" stroke-linejoin="round" d="M108,267.925h-3.5"/>
						</g>
					</g>
				</g>
				<g id="text_10">
					<g transform="translate(78.734375 271.72399)scale(0.1 -0.1)">
						<g>
							<path id="DejaVuSans-48_12_" d="M31.784,66.405c-5.073,0-8.892-2.5-11.455-7.5c-2.549-4.99-3.828-12.5-3.828-22.529
								c0-9.99,1.279-17.485,3.828-22.485c2.563-5,6.382-7.5,11.455-7.5c5.112,0,8.945,2.5,11.499,7.5
								c2.563,5,3.843,12.495,3.843,22.485c0,10.029-1.279,17.539-3.843,22.529C40.729,63.905,36.896,66.405,31.784,66.405z
								 M31.784,74.217c8.174,0,14.419-3.232,18.735-9.702c4.312-6.46,6.465-15.84,6.465-28.14c0-12.271-2.153-21.641-6.465-28.11
								c-4.316-6.46-10.562-9.688-18.735-9.688c-8.169,0-14.409,3.228-18.721,9.688c-4.312,6.47-6.47,15.84-6.47,28.11
								c0,12.3,2.158,21.68,6.47,28.14C17.375,70.985,23.615,74.217,31.784,74.217z"/>
						</g>
						<g>
							<path id="DejaVuSans-46_8_" d="M74.313,12.406h10.312V-0.001H74.313V12.406z"/>
						</g>
						<g>
							<path id="DejaVuSans-49_3_" d="M107.819,8.294h16.108v55.625l-17.529-3.516v8.984l17.437,3.516h9.858V8.294h16.108v-8.296
								h-41.982V8.294z"/>
						</g>
						<g>
							<path id="DejaVuSans-53_3_" d="M169.831,72.904h38.721v-8.311h-29.688V46.732c1.426,0.493,2.852,0.854,4.282,1.094
								c1.436,0.244,2.871,0.361,4.312,0.361c8.135,0,14.575-2.227,19.326-6.689c4.761-4.458,7.144-10.493,7.144-18.105
								c0-7.847-2.446-13.945-7.329-18.301c-4.888-4.341-11.772-6.514-20.659-6.514c-3.062,0-6.182,0.259-9.355,0.781
								c-3.169,0.522-6.445,1.304-9.829,2.344v9.922c2.925-1.592,5.952-2.783,9.077-3.564s6.426-1.172,9.907-1.172
								c5.635,0,10.093,1.479,13.374,4.438c3.291,2.959,4.937,6.982,4.937,12.065c0,5.073-1.646,9.087-4.937,12.046
								c-3.281,2.969-7.739,4.453-13.374,4.453c-2.637,0-5.269-0.293-7.891-0.874c-2.617-0.586-5.288-1.494-8.018-2.734V72.904z"/>
						</g>
					</g>
				</g>
			</g>
			<g id="ytick_5">
				<g id="line2d_10">
					<g>
						<g>
							<path id="m2ddd45fba1_4_" stroke="#000000" stroke-width="0.8" stroke-linejoin="round" d="M108,189.846h-3.5"/>
						</g>
					</g>
				</g>
				<g id="text_11">
					<g transform="translate(78.734375 193.644982)scale(0.1 -0.1)">
						<g>
							<path id="DejaVuSans-48_13_" d="M31.784,66.406c-5.073,0-8.892-2.5-11.455-7.5c-2.549-4.99-3.828-12.5-3.828-22.529
								c0-9.99,1.279-17.485,3.828-22.485c2.563-5,6.382-7.5,11.455-7.5c5.112,0,8.945,2.5,11.499,7.5
								c2.563,5,3.843,12.495,3.843,22.485c0,10.029-1.279,17.539-3.843,22.529C40.729,63.906,36.896,66.406,31.784,66.406z
								 M31.784,74.218c8.174,0,14.419-3.232,18.735-9.702c4.312-6.46,6.465-15.84,6.465-28.14c0-12.271-2.153-21.641-6.465-28.11
								c-4.316-6.46-10.562-9.688-18.735-9.688c-8.169,0-14.409,3.228-18.721,9.688c-4.312,6.47-6.47,15.84-6.47,28.11
								c0,12.3,2.158,21.68,6.47,28.14C17.375,70.986,23.615,74.218,31.784,74.218z"/>
						</g>
						<g>
							<path id="DejaVuSans-46_9_" d="M74.313,12.407h10.312V0H74.313V12.407z"/>
						</g>
						<g>
							<path id="DejaVuSans-50_1_" d="M114.601,8.295h34.419V0h-46.279v8.296c3.74,3.877,8.838,9.072,15.298,15.596
								c6.465,6.528,10.527,10.742,12.188,12.642c3.154,3.54,5.356,6.538,6.606,8.999c1.26,2.456,1.89,4.873,1.89,7.251
								c0,3.872-1.357,7.031-4.077,9.468c-2.72,2.446-6.26,3.672-10.625,3.672c-3.091,0-6.357-0.537-9.795-1.611
								c-3.428-1.074-7.095-2.7-11.001-4.888v9.966c3.97,1.597,7.676,2.798,11.123,3.608c3.462,0.815,6.621,1.221,9.487,1.221
								c7.549,0,13.574-1.89,18.062-5.674c4.487-3.77,6.733-8.809,6.733-15.122c0-3.003-0.562-5.845-1.685-8.53
								c-1.118-2.681-3.159-5.84-6.128-9.487c-0.811-0.947-3.398-3.677-7.764-8.188C128.698,22.709,122.546,16.401,114.601,8.295z"
								/>
						</g>
						<g>
							<path id="DejaVuSans-48_14_" d="M190.817,66.406c-5.073,0-8.892-2.5-11.455-7.5c-2.549-4.99-3.828-12.5-3.828-22.529
								c0-9.99,1.279-17.485,3.828-22.485c2.563-5,6.382-7.5,11.455-7.5c5.112,0,8.945,2.5,11.499,7.5
								c2.563,5,3.843,12.495,3.843,22.485c0,10.029-1.279,17.539-3.843,22.529C199.762,63.906,195.929,66.406,190.817,66.406z
								 M190.817,74.218c8.174,0,14.419-3.232,18.735-9.702c4.312-6.46,6.465-15.84,6.465-28.14c0-12.271-2.153-21.641-6.465-28.11
								c-4.316-6.46-10.562-9.688-18.735-9.688c-8.169,0-14.409,3.228-18.721,9.688c-4.312,6.47-6.47,15.84-6.47,28.11
								c0,12.3,2.158,21.68,6.47,28.14C176.408,70.986,182.648,74.218,190.817,74.218z"/>
						</g>
					</g>
				</g>
			</g>
			<g id="ytick_6">
				<g id="line2d_11">
					<g>
						<g>
							<path id="m2ddd45fba1_5_" stroke="#000000" stroke-width="0.8" stroke-linejoin="round" d="M108,111.767h-3.5"/>
						</g>
					</g>
				</g>
				<g id="text_12">
					<g transform="translate(78.734375 115.565973)scale(0.1 -0.1)">
						<g>
							<path id="DejaVuSans-48_15_" d="M31.784,66.407c-5.073,0-8.892-2.5-11.455-7.5c-2.549-4.99-3.828-12.5-3.828-22.534
								c0-9.985,1.279-17.48,3.828-22.48c2.563-5,6.382-7.5,11.455-7.5c5.112,0,8.945,2.5,11.499,7.5
								c2.563,5,3.843,12.495,3.843,22.48c0,10.034-1.279,17.544-3.843,22.534C40.729,63.907,36.896,66.407,31.784,66.407z
								 M31.784,74.219c8.174,0,14.419-3.237,18.735-9.702c4.312-6.46,6.465-15.84,6.465-28.145c0-12.271-2.153-21.641-6.465-28.105
								C46.203,1.807,39.958-1.42,31.784-1.42c-8.169,0-14.409,3.228-18.721,9.688c-4.312,6.465-6.47,15.835-6.47,28.105
								c0,12.305,2.158,21.685,6.47,28.145C17.375,70.982,23.615,74.219,31.784,74.219z"/>
						</g>
						<g>
							<path id="DejaVuSans-46_10_" d="M74.313,12.408h10.312V0H74.313V12.408z"/>
						</g>
						<g>
							<path id="DejaVuSans-50_2_" d="M114.601,8.296h34.419V0h-46.279v8.296c3.74,3.877,8.838,9.072,15.298,15.596
								c6.465,6.528,10.527,10.742,12.188,12.637c3.154,3.545,5.356,6.543,6.606,9.004c1.26,2.456,1.89,4.873,1.89,7.246
								c0,3.877-1.357,7.031-4.077,9.473c-2.72,2.446-6.26,3.672-10.625,3.672c-3.091,0-6.357-0.537-9.795-1.611
								c-3.428-1.074-7.095-2.705-11.001-4.893v9.971c3.97,1.592,7.676,2.798,11.123,3.608c3.462,0.815,6.621,1.221,9.487,1.221
								c7.549,0,13.574-1.89,18.062-5.674c4.487-3.77,6.733-8.813,6.733-15.122c0-3.003-0.562-5.845-1.685-8.535
								c-1.118-2.676-3.159-5.835-6.128-9.482c-0.811-0.947-3.398-3.677-7.764-8.188C128.698,22.71,122.546,16.402,114.601,8.296z"
								/>
						</g>
						<g>
							<path id="DejaVuSans-53_4_" d="M169.831,72.906h38.721v-8.311h-29.688V46.734c1.426,0.488,2.852,0.854,4.282,1.094
								c1.436,0.239,2.871,0.361,4.312,0.361c8.135,0,14.575-2.231,19.326-6.689c4.761-4.458,7.144-10.493,7.144-18.11
								c0-7.842-2.446-13.94-7.329-18.296c-4.888-4.346-11.772-6.514-20.659-6.514c-3.062,0-6.182,0.259-9.355,0.781
								c-3.169,0.518-6.445,1.299-9.829,2.344v9.922c2.925-1.597,5.952-2.783,9.077-3.564s6.426-1.172,9.907-1.172
								c5.635,0,10.093,1.479,13.374,4.438c3.291,2.959,4.937,6.978,4.937,12.061c0,5.073-1.646,9.092-4.937,12.046
								c-3.281,2.969-7.739,4.453-13.374,4.453c-2.637,0-5.269-0.288-7.891-0.874c-2.617-0.581-5.288-1.494-8.018-2.734V72.906z"/>
						</g>
					</g>
				</g>
			</g>
			<g id="text_13">
				<g transform="translate(72.654687 324.500313)rotate(-90)scale(0.1 -0.1)">
					<g>
						<path id="DejaVuSans-88" d="M6.292,72.903h10.605l18.125-27.109l18.203,27.109h10.586L40.374,37.888l25-37.891H54.788
							L34.28,30.998L13.626-0.003H2.991l26.016,38.921L6.292,72.903z"/>
					</g>
					<g>
						<path id="DejaVuSans-32_1_" d="M68.499-0.003"/>
					</g>
					<g>
						<path id="DejaVuSans-40_1_" d="M131.292,75.871c-4.355-7.476-7.598-14.883-9.717-22.217
							c-2.119-7.324-3.174-14.746-3.174-22.266c0-7.51,1.074-14.951,3.203-22.329c2.139-7.373,5.371-14.79,9.688-22.251h-7.812
							c-4.873,7.656-8.525,15.181-10.957,22.563c-2.422,7.388-3.633,14.727-3.633,22.017c0,7.261,1.201,14.565,3.613,21.924
							c2.412,7.363,6.074,14.883,10.977,22.559H131.292z"/>
					</g>
					<g>
						<path id="DejaVuSans-67" d="M203.714,67.278V56.887c-3.32,3.096-6.865,5.405-10.625,6.924
							c-3.76,1.533-7.754,2.295-11.992,2.295c-8.32,0-14.707-2.544-19.141-7.637c-4.414-5.098-6.641-12.461-6.641-22.095
							c0-9.604,2.227-16.953,6.641-22.046c4.434-5.098,10.82-7.642,19.141-7.642c4.238,0,8.232,0.767,11.992,2.295
							c3.76,1.533,7.305,3.843,10.625,6.938V5.608c-3.447-2.344-7.109-4.106-10.977-5.283c-3.848-1.167-7.92-1.748-12.207-1.748
							c-11.045,0-19.746,3.374-26.094,10.127c-6.348,6.758-9.521,15.981-9.521,27.671c0,11.719,3.174,20.952,9.521,27.7
							c6.348,6.763,15.049,10.142,26.094,10.142c4.355,0,8.457-0.576,12.305-1.733C196.702,71.326,200.325,69.592,203.714,67.278z"
							/>
					</g>
					<g>
						<path id="DejaVuSans-97" d="M243.411,27.483c-7.256,0-12.295-0.83-15.088-2.485c-2.812-1.655-4.209-4.487-4.209-8.501
							c0-3.184,1.055-5.718,3.154-7.593c2.109-1.865,4.961-2.798,8.564-2.798c4.99,0,8.994,1.768,12.002,5.298
							c3.008,3.53,4.512,8.223,4.512,14.077v2.002H243.411z M261.331,31.203V-0.003h-8.984v8.296
							c-2.051-3.311-4.609-5.757-7.676-7.344c-3.057-1.582-6.797-2.373-11.23-2.373c-5.586,0-10.039,1.572-13.359,4.717
							c-3.301,3.149-4.951,7.358-4.951,12.627c0,6.147,2.061,10.781,6.172,13.906c4.131,3.125,10.273,4.688,18.438,4.688h12.607
							v0.889c0,4.136-1.357,7.334-4.082,9.595c-2.715,2.261-6.523,3.394-11.445,3.394c-3.125,0-6.172-0.376-9.141-1.128
							c-2.959-0.747-5.801-1.875-8.535-3.374V52.2c3.281,1.274,6.465,2.222,9.57,2.847c3.086,0.635,6.094,0.952,9.023,0.952
							c7.92,0,13.828-2.051,17.734-6.157C259.378,45.749,261.331,39.534,261.331,31.203z"/>
					</g>
					<g>
						<path id="DejaVuSans-44" d="M282.132,12.405h10.293V3.996l-7.998-15.625h-6.299l4.004,15.625V12.405z"/>
					</g>
					<g>
						<path id="DejaVuSans-77" d="M312.014,72.903h14.697l18.594-49.609l18.706,49.609h14.702V-0.003h-9.624v64.019l-18.794-50
							h-9.912l-18.799,50V-0.003h-9.57V72.903z"/>
					</g>
					<g>
						<path id="DejaVuSans-110" d="M443.367,33.015V-0.003h-8.984v32.72c0,5.176-1.011,9.048-3.032,11.611
							c-2.021,2.573-5.044,3.857-9.077,3.857c-4.854,0-8.682-1.548-11.484-4.639c-2.803-3.086-4.204-7.3-4.204-12.642V-0.003h-9.028
							v54.688h9.028v-8.501c2.158,3.296,4.688,5.752,7.593,7.378c2.92,1.626,6.284,2.437,10.098,2.437
							c6.279,0,11.03-1.943,14.248-5.83C441.751,46.286,443.367,40.564,443.367,33.015z"/>
					</g>
					<g>
						<path id="DejaVuSans-44_1_" d="M463.572,12.405h10.298V3.996l-7.998-15.625h-6.299l3.999,15.625V12.405z"/>
					</g>
					<g>
						<path id="DejaVuSans-77_1_" d="M493.455,72.903h14.702l18.594-49.609l18.706,49.609h14.702V-0.003h-9.624v64.019l-18.799-50
							h-9.907l-18.794,50V-0.003h-9.58V72.903z"/>
					</g>
					<g>
						<path id="DejaVuSans-103" d="M615.33,27.981c0,6.514-1.348,11.553-4.033,15.127c-2.676,3.584-6.44,5.376-11.299,5.376
							c-4.81,0-8.56-1.792-11.25-5.376c-2.686-3.574-4.028-8.613-4.028-15.127c0-6.479,1.343-11.509,4.028-15.093
							c2.69-3.584,6.44-5.376,11.25-5.376c4.858,0,8.623,1.792,11.299,5.376C613.982,16.472,615.33,21.501,615.33,27.981z
							 M624.314,6.78c0-9.302-2.07-16.226-6.206-20.767c-4.126-4.541-10.454-6.812-18.984-6.812c-3.154,0-6.133,0.234-8.936,0.703
							s-5.522,1.191-8.159,2.173v8.735c2.637-1.431,5.239-2.48,7.812-3.159c2.573-0.688,5.195-1.03,7.861-1.03
							c5.894,0,10.308,1.538,13.232,4.609c2.93,3.071,4.395,7.72,4.395,13.936v4.453c-1.855-3.228-4.233-5.64-7.129-7.231
							c-2.896-1.597-6.362-2.393-10.405-2.393c-6.699,0-12.1,2.554-16.201,7.656c-4.106,5.117-6.157,11.89-6.157,20.327
							c0,8.462,2.051,15.239,6.157,20.347c4.102,5.112,9.502,7.671,16.201,7.671c4.043,0,7.51-0.796,10.405-2.393
							c2.896-1.592,5.273-3.999,7.129-7.217v8.296h8.984V6.78z"/>
					</g>
					<g>
						<path id="DejaVuSans-41_1_" d="M641.414,75.871h7.812c4.873-7.676,8.525-15.195,10.952-22.559
							c2.427-7.358,3.643-14.663,3.643-21.924c0-7.29-1.216-14.629-3.643-22.017c-2.427-7.383-6.079-14.907-10.952-22.563h-7.812
							c4.321,7.461,7.554,14.878,9.688,22.251c2.134,7.378,3.203,14.819,3.203,22.329c0,7.52-1.069,14.941-3.203,22.266
							C648.968,60.989,645.735,68.396,641.414,75.871z"/>
					</g>
				</g>
			</g>
		</g>
		<g id="line2d_12">
			<g>
				<defs>
					<rect id="SVGID_1_" x="108" y="69.12" width="669.6" height="443.52"/>
				</defs>
				<clipPath id="SVGID_2_">
					<use xlink:href="#SVGID_1_"  overflow="visible"/>
				</clipPath>
				<path clip-path="url(#SVGID_2_)" fill="none" stroke="#008000" stroke-linecap="square" stroke-linejoin="round" d="
					M138.437,291.934l123.173-0.08l0.16-0.037l5.516,0.312l5.516,0.781l5.516-0.625l5.516-0.156l5.516,3.123l5.516-1.873
					l5.516-2.499l5.516,3.748l5.516,1.405l5.516,2.186l5.516-1.561l5.517,2.186l5.516-1.562l5.516-1.405l5.516,3.592l5.517,1.718
					l5.516,0.78l5.516,1.094l5.516,2.811l5.516-1.562l5.517,2.187l5.516,2.811l11.031,6.246l5.517,0.312l5.516,0.312l5.516,1.873
					l5.516,7.34l5.516,0.625l5.517-1.405l5.516,4.997l5.516,6.09l5.516-0.625l5.517,2.03l5.516,6.091l5.516-0.781l5.516,8.276
					l5.516,2.812l5.517,5.777l5.516,2.186l5.516,4.217l5.516,7.34l5.517,3.592l5.516,2.811l5.516,2.186l5.516,2.499l5.516,5.622
					l5.517,6.559l5.516,4.06l5.516,3.279l5.516,5.153l5.517,4.841l5.516,6.09l5.516,2.655l5.516,5.621l5.516,2.343l5.517,3.123
					l5.516,4.372l5.516,3.279l5.516,0.781l5.517,4.841l5.516,5.31l5.516,2.187l5.516,2.654l5.516,2.343l5.517,4.997l5.516,1.093
					l5.516,3.904l5.516,1.249l5.517,2.03l5.516,3.903l5.516,2.03l5.516,1.874l5.516,2.342l5.517,3.124l5.516,1.718l5.516-0.156
					l5.516,0.156l5.517,1.093l5.516,1.718l5.516,0.469l5.516-0.312l5.516,1.562h5.517l5.516-0.469l5.516,0.781l5.516-0.156
					l5.517,0.312"/>
			</g>
		</g>
		<g id="line2d_13">
			<g>
				<defs>
					<rect id="SVGID_3_" x="108" y="69.12" width="669.6" height="443.52"/>
				</defs>
				<clipPath id="SVGID_4_">
					<use xlink:href="#SVGID_3_"  overflow="visible"/>
				</clipPath>
				<path clip-path="url(#SVGID_4_)" fill="none" stroke="#0000FF" stroke-linecap="square" stroke-linejoin="round" d="
					M138.437,465.111l123.173-0.083l0.16-0.032l5.516,0.312l5.516-3.279l5.516,4.528l5.516,1.718l5.516-2.342l5.516-1.874
					l5.516,0.468l5.516,2.187l5.516-0.625l5.516-2.342l5.516-2.967l5.517,3.591l5.516,0.156l5.516-0.468l5.516-0.469l5.517,0.625
					l5.516-0.625l5.516-1.093l5.516,2.029l5.516-2.967l5.517,4.061l5.516-3.279l11.031-1.094l5.517-1.405l5.516,1.094l5.516,2.654
					l5.516-3.748l5.516-0.156l5.517,3.904l5.516-2.03l5.516-1.874l5.516,0.781l5.517-0.781l5.516-2.186l5.516,3.747l5.516-4.997
					l5.516,0.781l5.517,1.249l5.516-4.841l5.516,3.436l5.516-2.811l5.517,1.249l5.516-0.312l5.516,1.718l5.516-1.874l5.516-2.03
					l5.517,1.874l5.516-2.029l5.516-2.499l5.516,0.312l5.517,2.342l5.516-4.841l5.516-0.156l5.516,0.781l5.516-1.093l5.517-0.312
					l5.516-0.312l5.516-3.436l5.516,1.093l5.517,0.781l5.516-4.061l5.516,0.312l5.516-1.249l5.516-5.153l5.517,2.187l5.516-0.156
					l5.516-2.187l5.516,4.528l5.517-6.09l5.516-2.498l5.516-2.812l5.516-8.12l5.516-2.967l5.517-6.09l5.516-6.402l5.516-4.217
					l5.516-5.622l5.517-3.279l5.516-2.498l5.516-10.775l5.516-3.123l5.516-12.492l5.517-4.373l5.516-0.468l5.516-2.812l5.516-7.183
					l5.517-14.366"/>
			</g>
		</g>
		<g id="line2d_14">
			<g>
				<defs>
					<rect id="SVGID_5_" x="108" y="69.12" width="669.6" height="443.52"/>
				</defs>
				<clipPath id="SVGID_6_">
					<use xlink:href="#SVGID_5_"  overflow="visible"/>
				</clipPath>
				<path clip-path="url(#SVGID_6_)" fill="none" stroke="#FFA500" stroke-linecap="square" stroke-linejoin="round" d="
					M138.437,98.899L261.61,98.93l0.16,0.032l5.516-0.156l5.516-7.027l5.516,5.466l5.516-2.811l5.516,0.156l5.516-1.25l5.516,4.841
					l5.516-1.406l5.516-7.495l5.516,2.03l5.516,3.904l5.517-5.622l5.516,5.153l5.516,2.967l5.516-7.652l5.517,4.841l5.516,0.937
					l5.516,1.874l5.516-4.06l5.516,6.559l5.517-0.781l5.516,2.811l11.031-4.685l5.517,6.714l5.516,2.187l5.516-4.685l5.516,2.967
					l5.516-0.156l5.517-1.718l5.516,0.781l5.516,1.25l5.516,3.748l5.517-2.03l5.516,7.808l5.516-1.718l5.516-0.625l5.516,4.06
					l5.517-0.937l5.516,2.655l5.516-2.342l5.516,4.372l5.517-4.216l5.516-2.343l5.516,6.871l5.516-0.937l5.516,3.279l5.517-4.216
					l5.516,4.529l5.516,7.027l5.516-3.748l5.517-1.874l5.516,4.06l5.516,6.559l5.516-1.093l5.516,2.499l5.517,1.718l5.516,3.591
					l5.516,2.655l5.516,1.093l5.517-0.156l5.516,2.811l5.516,0.937l5.516-7.964l5.516,16.553l5.517-3.123l5.516,3.591l5.516,3.904
					l5.516,7.339l5.517,0.937l5.516-0.781l5.516,10.462l5.516-0.937l5.516,14.21l5.517,10.15l5.516,10.307l5.516,10.306
					l5.516,10.462l5.517,0.156l5.516,16.084l5.516-2.342l5.516,5.778l5.516,21.706l5.517,16.396l5.516,0.312l5.516,1.718
					l5.516,11.243l5.517,18.583"/>
			</g>
		</g>
		<g id="line2d_15">
			<g>
				<defs>
					<rect id="SVGID_7_" x="108" y="69.12" width="669.6" height="443.52"/>
				</defs>
				<clipPath id="SVGID_8_">
					<use xlink:href="#SVGID_7_"  overflow="visible"/>
				</clipPath>
				
					<path clip-path="url(#SVGID_8_)" fill="none" stroke="#000000" stroke-width="1.5" stroke-linejoin="round" stroke-dasharray="5.55,2.4" d="
					M194.041-1"/>
				
					<path clip-path="url(#SVGID_8_)" fill="none" stroke="#000000" stroke-width="1.5" stroke-linejoin="round" stroke-dasharray="5.55,2.4" d="
					M194.041,577"/>
			</g>
		</g>
		<g id="line2d_16">
			<g>
				<defs>
					<rect id="SVGID_9_" x="108" y="69.12" width="669.6" height="443.52"/>
				</defs>
				<clipPath id="SVGID_10_">
					<use xlink:href="#SVGID_9_"  overflow="visible"/>
				</clipPath>
				
					<path clip-path="url(#SVGID_10_)" fill="none" stroke="#000000" stroke-width="1.5" stroke-linejoin="round" stroke-dasharray="5.55,2.4" d="
					M249.646-1"/>
				
					<path clip-path="url(#SVGID_10_)" fill="none" stroke="#000000" stroke-width="1.5" stroke-linejoin="round" stroke-dasharray="5.55,2.4" d="
					M249.646,577"/>
			</g>
		</g>
		<g id="line2d_17">
			<g>
				<defs>
					<rect id="SVGID_11_" x="108" y="69.12" width="669.6" height="443.52"/>
				</defs>
				<clipPath id="SVGID_12_">
					<use xlink:href="#SVGID_11_"  overflow="visible"/>
				</clipPath>
				
					<path clip-path="url(#SVGID_12_)" fill="none" stroke="#000000" stroke-width="1.5" stroke-linejoin="round" stroke-dasharray="5.55,2.4" d="
					M305.251-1"/>
				
					<path clip-path="url(#SVGID_12_)" fill="none" stroke="#000000" stroke-width="1.5" stroke-linejoin="round" stroke-dasharray="5.55,2.4" d="
					M305.251,577"/>
			</g>
		</g>
		<g id="line2d_18">
			<g>
				<defs>
					<rect id="SVGID_13_" x="108" y="69.12" width="669.6" height="443.52"/>
				</defs>
				<clipPath id="SVGID_14_">
					<use xlink:href="#SVGID_13_"  overflow="visible"/>
				</clipPath>
				
					<path clip-path="url(#SVGID_14_)" fill="none" stroke="#000000" stroke-width="1.5" stroke-linejoin="round" stroke-dasharray="5.55,2.4" d="
					M360.856-1"/>
				
					<path clip-path="url(#SVGID_14_)" fill="none" stroke="#000000" stroke-width="1.5" stroke-linejoin="round" stroke-dasharray="5.55,2.4" d="
					M360.856,577"/>
			</g>
		</g>
		<g id="line2d_19">
			<g>
				<defs>
					<rect id="SVGID_15_" x="108" y="69.12" width="669.6" height="443.52"/>
				</defs>
				<clipPath id="SVGID_16_">
					<use xlink:href="#SVGID_15_"  overflow="visible"/>
				</clipPath>
				
					<path clip-path="url(#SVGID_16_)" fill="none" stroke="#000000" stroke-width="1.5" stroke-linejoin="round" stroke-dasharray="5.55,2.4" d="
					M416.46-1"/>
				
					<path clip-path="url(#SVGID_16_)" fill="none" stroke="#000000" stroke-width="1.5" stroke-linejoin="round" stroke-dasharray="5.55,2.4" d="
					M416.46,577"/>
			</g>
		</g>
		<g id="line2d_20">
			<g>
				<defs>
					<rect id="SVGID_17_" x="108" y="69.12" width="669.6" height="443.52"/>
				</defs>
				<clipPath id="SVGID_18_">
					<use xlink:href="#SVGID_17_"  overflow="visible"/>
				</clipPath>
				
					<path clip-path="url(#SVGID_18_)" fill="none" stroke="#000000" stroke-width="1.5" stroke-linejoin="round" stroke-dasharray="5.55,2.4" d="
					M472.065-1"/>
				
					<path clip-path="url(#SVGID_18_)" fill="none" stroke="#000000" stroke-width="1.5" stroke-linejoin="round" stroke-dasharray="5.55,2.4" d="
					M472.065,577"/>
			</g>
		</g>
		<g id="line2d_21">
			<g>
				<defs>
					<rect id="SVGID_19_" x="108" y="69.12" width="669.6" height="443.52"/>
				</defs>
				<clipPath id="SVGID_20_">
					<use xlink:href="#SVGID_19_"  overflow="visible"/>
				</clipPath>
				
					<path clip-path="url(#SVGID_20_)" fill="none" stroke="#000000" stroke-width="1.5" stroke-linejoin="round" stroke-dasharray="5.55,2.4" d="
					M527.669-1"/>
				
					<path clip-path="url(#SVGID_20_)" fill="none" stroke="#000000" stroke-width="1.5" stroke-linejoin="round" stroke-dasharray="5.55,2.4" d="
					M527.669,577"/>
			</g>
		</g>
		<g id="line2d_22">
			<g>
				<defs>
					<rect id="SVGID_21_" x="108" y="69.12" width="669.6" height="443.52"/>
				</defs>
				<clipPath id="SVGID_22_">
					<use xlink:href="#SVGID_21_"  overflow="visible"/>
				</clipPath>
				
					<path clip-path="url(#SVGID_22_)" fill="none" stroke="#000000" stroke-width="1.5" stroke-linejoin="round" stroke-dasharray="5.55,2.4" d="
					M583.274-1"/>
				
					<path clip-path="url(#SVGID_22_)" fill="none" stroke="#000000" stroke-width="1.5" stroke-linejoin="round" stroke-dasharray="5.55,2.4" d="
					M583.274,577"/>
			</g>
		</g>
		<g id="line2d_23">
			<g>
				<defs>
					<rect id="SVGID_23_" x="108" y="69.12" width="669.6" height="443.52"/>
				</defs>
				<clipPath id="SVGID_24_">
					<use xlink:href="#SVGID_23_"  overflow="visible"/>
				</clipPath>
				
					<path clip-path="url(#SVGID_24_)" fill="none" stroke="#000000" stroke-width="1.5" stroke-linejoin="round" stroke-dasharray="5.55,2.4" d="
					M638.879-1"/>
				
					<path clip-path="url(#SVGID_24_)" fill="none" stroke="#000000" stroke-width="1.5" stroke-linejoin="round" stroke-dasharray="5.55,2.4" d="
					M638.879,577"/>
			</g>
		</g>
		<g id="line2d_24">
			<g>
				<defs>
					<rect id="SVGID_25_" x="108" y="69.12" width="669.6" height="443.52"/>
				</defs>
				<clipPath id="SVGID_26_">
					<use xlink:href="#SVGID_25_"  overflow="visible"/>
				</clipPath>
				
					<path clip-path="url(#SVGID_26_)" fill="none" stroke="#000000" stroke-width="1.5" stroke-linejoin="round" stroke-dasharray="5.55,2.4" d="
					M694.484-1"/>
				
					<path clip-path="url(#SVGID_26_)" fill="none" stroke="#000000" stroke-width="1.5" stroke-linejoin="round" stroke-dasharray="5.55,2.4" d="
					M694.484,577"/>
			</g>
		</g>
		<g id="line2d_25">
			<g>
				<defs>
					<rect id="SVGID_27_" x="108" y="69.12" width="669.6" height="443.52"/>
				</defs>
				<clipPath id="SVGID_28_">
					<use xlink:href="#SVGID_27_"  overflow="visible"/>
				</clipPath>
				
					<path clip-path="url(#SVGID_28_)" fill="none" stroke="#000000" stroke-width="1.5" stroke-linejoin="round" stroke-dasharray="5.55,2.4" d="
					M747.164-1"/>
				
					<path clip-path="url(#SVGID_28_)" fill="none" stroke="#000000" stroke-width="1.5" stroke-linejoin="round" stroke-dasharray="5.55,2.4" d="
					M747.164,577"/>
			</g>
		</g>
		<g id="patch_3">
			<path fill="none" stroke="#000000" stroke-width="0.8" stroke-linecap="square" d="M108,512.64V69.12"/>
		</g>
		<g id="patch_4">
			<path fill="none" stroke="#000000" stroke-width="0.8" stroke-linecap="square" d="M777.6,512.64V69.12"/>
		</g>
		<g id="patch_5">
			<path fill="none" stroke="#000000" stroke-width="0.8" stroke-linecap="square" d="M108,512.64h669.6"/>
		</g>
		<g id="patch_6">
			<path fill="none" stroke="#000000" stroke-width="0.8" stroke-linecap="square" d="M108,69.12h669.6"/>
		</g>
		<g id="legend_1">
			<g id="patch_7">
				<path opacity="0.8" fill="#FFFFFF" stroke="#CCCCCC" enable-background="new    " d="M117.8,207.703h65.768
					c1.867,0,2.8-1.164,2.8-3.491v-75.105c0-2.327-0.933-3.49-2.8-3.49H117.8c-1.867,0-2.8,1.163-2.8,3.49v75.105
					C115,206.539,115.933,207.703,117.8,207.703z"/>
			</g>
			<g id="line2d_26">
				<path fill="none" stroke="#008000" stroke-linecap="square" stroke-linejoin="round" d="M120.6,136.955h28"/>
			</g>
			<g id="line2d_27">
			</g>
			<g id="text_14">
				<g transform="translate(159.8 92.357812)scale(0.14 -0.14)">
					<g>
						<path id="DejaVuSans-77_2_" d="M9.814-280.64h14.704l18.593-49.609l18.701,49.609h14.704v-72.907h-9.626v64.017l-18.795-50
							H38.19l-18.799,50v-64.017H9.814V-280.64z"/>
					</g>
					<g>
						<path id="DejaVuSans-110_1_" d="M141.172-320.53v-33.018h-8.984v32.719c0,5.179-1.011,9.047-3.031,11.611
							c-2.023,2.574-5.05,3.861-9.079,3.861c-4.855,0-8.684-1.549-11.485-4.642c-2.804-3.083-4.203-7.296-4.203-12.64v-30.908
							h-9.033v54.688h9.033v-8.5c2.155,3.292,4.688,5.751,7.593,7.376c2.916,1.625,6.281,2.438,10.093,2.438
							c6.281,0,11.032-1.946,14.251-5.832C139.557-307.262,141.172-312.979,141.172-320.53z"/>
					</g>
				</g>
			</g>
			<g id="line2d_28">
				<path fill="none" stroke="#0000FF" stroke-linecap="square" stroke-linejoin="round" d="M120.6,157.504h28"/>
			</g>
			<g id="line2d_29">
			</g>
			<g id="text_15">
				<g transform="translate(159.8 112.907187)scale(0.14 -0.14)">
					<g>
						<path id="DejaVuSans-77_3_" d="M9.814-280.64h14.704l18.593-49.609l18.701,49.609h14.704v-72.907h-9.626v64.017l-18.795-50
							H38.19l-18.799,50v-64.017H9.814V-280.64z"/>
					</g>
					<g>
						<path id="DejaVuSans-103_1_" d="M131.686-325.562c0,6.508-1.343,11.551-4.032,15.123c-2.675,3.585-6.442,5.378-11.297,5.378
							c-4.81,0-8.562-1.793-11.248-5.378c-2.689-3.572-4.032-8.615-4.032-15.123c0-6.48,1.343-11.51,4.032-15.095
							c2.686-3.582,6.438-5.375,11.248-5.375c4.855,0,8.622,1.793,11.297,5.375C130.343-337.071,131.686-332.042,131.686-325.562z
							 M140.67-346.767c0-9.302-2.068-16.221-6.201-20.766c-4.126-4.541-10.453-6.812-18.984-6.812
							c-3.156,0-6.138,0.234-8.939,0.705c-2.801,0.467-5.521,1.193-8.158,2.173v8.733c2.637-1.427,5.242-2.48,7.812-3.156
							c2.574-0.687,5.193-1.032,7.861-1.032c5.894,0,10.306,1.538,13.232,4.611c2.93,3.073,4.391,7.718,4.391,13.937v4.454
							c-1.852-3.23-4.227-5.643-7.125-7.234c-2.895-1.594-6.362-2.393-10.404-2.393c-6.7,0-12.099,2.553-16.204,7.656
							c-4.105,5.116-6.156,11.893-6.156,20.33c0,8.458,2.051,15.238,6.156,20.344c4.105,5.113,9.504,7.67,16.204,7.67
							c4.042,0,7.509-0.795,10.404-2.389c2.898-1.594,5.273-4,7.125-7.22v8.297h8.984V-346.767z"/>
					</g>
				</g>
			</g>
			<g id="line2d_30">
				<path fill="none" stroke="#FFA500" stroke-linecap="square" stroke-linejoin="round" d="M120.6,178.053h28"/>
			</g>
			<g id="line2d_31">
			</g>
			<g id="text_16">
				<g transform="translate(159.8 133.456562)scale(0.14 -0.14)">
					<g>
						<path id="DejaVuSans-67_1_" d="M64.407-286.265v-10.39c-3.324,3.094-6.864,5.399-10.624,6.92
							c-3.763,1.531-7.757,2.299-11.987,2.299c-8.332,0-14.711-2.546-19.141-7.642c-4.426-5.092-6.641-12.458-6.641-22.095
							c0-9.602,2.215-16.95,6.641-22.046c4.429-5.092,10.808-7.642,19.141-7.642c4.231,0,8.224,0.767,11.987,2.298
							c3.76,1.531,7.3,3.844,10.624,6.937v-10.313c-3.449-2.344-7.104-4.102-10.969-5.28c-3.854-1.165-7.928-1.751-12.217-1.751
							c-11.042,0-19.741,3.376-26.095,10.125c-6.344,6.763-9.515,15.984-9.515,27.672c0,11.719,3.17,20.954,9.515,27.706
							c6.355,6.759,15.053,10.139,26.095,10.139c4.353,0,8.458-0.579,12.312-1.733C57.397-282.219,61.021-283.953,64.407-286.265z"
							/>
					</g>
					<g>
						<path id="DejaVuSans-97_1_" d="M104.108-326.064c-7.261,0-12.294-0.826-15.095-2.483c-2.804-1.657-4.203-4.489-4.203-8.5
							c0-3.188,1.05-5.72,3.156-7.593c2.103-1.866,4.956-2.797,8.562-2.797c4.987,0,8.988,1.765,11.998,5.294
							c3.01,3.533,4.517,8.224,4.517,14.08v1.998H104.108z M122.028-322.342v-31.205h-8.984v8.297
							c-2.051-3.313-4.611-5.762-7.673-7.345c-3.062-1.583-6.805-2.375-11.234-2.375c-5.594,0-10.045,1.573-13.358,4.719
							c-3.303,3.146-4.953,7.355-4.953,12.625c0,6.146,2.058,10.781,6.17,13.906c4.126,3.125,10.271,4.688,18.44,4.688h12.608v0.893
							c0,4.133-1.36,7.331-4.077,9.591c-2.72,2.264-6.536,3.394-11.454,3.394c-3.125,0-6.173-0.377-9.141-1.126
							c-2.958-0.75-5.8-1.876-8.531-3.376v8.315c3.282,1.27,6.47,2.218,9.563,2.843c3.094,0.635,6.104,0.952,9.03,0.952
							c7.917,0,13.829-2.051,17.735-6.156C120.075-307.798,122.028-314.01,122.028-322.342z"/>
					</g>
				</g>
			</g>
		</g>
	</g>
	<g id="axes_2">
		<g id="matplotlib.axis_3">
			<g id="ytick_7">
				<g id="line2d_32">
					<g>
						<g>
							<path id="mda6d75ec53" stroke="#000000" stroke-width="0.8" stroke-linejoin="round" d="M777.6,497.463h3.5"/>
						</g>
					</g>
				</g>
				<g id="text_17">
					<g transform="translate(784.6 501.262123)scale(0.1 -0.1)">
						<g>
							<path id="DejaVuSans-48_16_" d="M31.785,66.41c-5.078,0-8.896-2.5-11.455-7.5c-2.549-4.99-3.828-12.5-3.828-22.539
								c0-9.99,1.279-17.48,3.828-22.48c2.559-5,6.377-7.5,11.455-7.5c5.107,0,8.945,2.5,11.494,7.5
								c2.568,5,3.848,12.49,3.848,22.48c0,10.039-1.279,17.549-3.848,22.539C40.73,63.91,36.893,66.41,31.785,66.41z
								 M31.785,74.223c8.174,0,14.424-3.242,18.73-9.707c4.316-6.455,6.475-15.84,6.475-28.145c0-12.266-2.158-21.641-6.475-28.105
								c-4.307-6.455-10.557-9.688-18.73-9.688S17.381,1.81,13.064,8.266C8.748,14.73,6.6,24.105,6.6,36.371
								c0,12.305,2.148,21.689,6.465,28.145C17.381,70.98,23.611,74.223,31.785,74.223z"/>
						</g>
						<g>
							<path id="DejaVuSans-46_11_" d="M74.314,12.406h10.312V0.004H74.314V12.406z"/>
						</g>
						<g>
							<path id="DejaVuSans-53_5_" d="M106.209,72.904h38.721v-8.311h-29.688V46.732c1.426,0.488,2.852,0.859,4.277,1.094
								c1.436,0.244,2.881,0.361,4.316,0.361c8.135,0,14.58-2.227,19.326-6.689c4.756-4.453,7.139-10.488,7.139-18.105
								c0-7.842-2.441-13.945-7.324-18.301c-4.893-4.346-11.777-6.514-20.654-6.514c-3.066,0-6.191,0.264-9.365,0.781
								c-3.164,0.518-6.445,1.299-9.824,2.344v9.922c2.92-1.592,5.947-2.783,9.072-3.564s6.426-1.172,9.912-1.172
								c5.635,0,10.088,1.484,13.369,4.443c3.291,2.959,4.941,6.973,4.941,12.061c0,5.068-1.65,9.082-4.941,12.041
								c-3.281,2.969-7.734,4.453-13.369,4.453c-2.637,0-5.264-0.283-7.891-0.869c-2.617-0.586-5.293-1.494-8.018-2.734V72.904z"/>
						</g>
						<g>
							<path id="DejaVuSans-55" d="M167.234,72.904h46.875v-4.199L187.645,0.004h-10.293l24.902,64.59h-35.02V72.904z"/>
						</g>
						<g>
							<path id="DejaVuSans-53_6_" d="M233.455,72.904h38.721v-8.311h-29.688V46.732c1.426,0.488,2.852,0.859,4.277,1.094
								c1.436,0.244,2.881,0.361,4.316,0.361c8.135,0,14.58-2.227,19.326-6.689c4.756-4.453,7.139-10.488,7.139-18.105
								c0-7.842-2.441-13.945-7.324-18.301c-4.893-4.346-11.777-6.514-20.654-6.514c-3.066,0-6.191,0.264-9.365,0.781
								c-3.164,0.518-6.445,1.299-9.824,2.344v9.922c2.92-1.592,5.947-2.783,9.072-3.564s6.426-1.172,9.912-1.172
								c5.635,0,10.088,1.484,13.369,4.443c3.291,2.959,4.941,6.973,4.941,12.061c0,5.068-1.65,9.082-4.941,12.041
								c-3.281,2.969-7.734,4.453-13.369,4.453c-2.637,0-5.264-0.283-7.891-0.869c-2.617-0.586-5.293-1.494-8.018-2.734V72.904z"/>
						</g>
					</g>
				</g>
			</g>
			<g id="ytick_8">
				<g id="line2d_33">
					<g>
						<g>
							<path id="mda6d75ec53_1_" stroke="#000000" stroke-width="0.8" stroke-linejoin="round" d="M777.6,445.558h3.5"/>
						</g>
					</g>
				</g>
				<g id="text_18">
					<g transform="translate(784.6 449.356871)scale(0.1 -0.1)">
						<g>
							<path id="DejaVuSans-48_17_" d="M31.786,66.41c-5.078,0-8.896-2.5-11.455-7.5c-2.549-4.99-3.828-12.5-3.828-22.539
								c0-9.99,1.279-17.48,3.828-22.48c2.559-5,6.377-7.5,11.455-7.5c5.107,0,8.945,2.5,11.494,7.5
								c2.568,5,3.848,12.49,3.848,22.48c0,10.039-1.279,17.549-3.848,22.539C40.731,63.91,36.893,66.41,31.786,66.41z
								 M31.786,74.223c8.174,0,14.424-3.242,18.73-9.707c4.316-6.455,6.475-15.84,6.475-28.145c0-12.266-2.158-21.641-6.475-28.105
								c-4.307-6.455-10.557-9.688-18.73-9.688S17.381,1.811,13.065,8.266C8.749,14.731,6.6,24.106,6.6,36.371
								c0,12.305,2.148,21.689,6.465,28.145C17.381,70.981,23.612,74.223,31.786,74.223z"/>
						</g>
						<g>
							<path id="DejaVuSans-46_12_" d="M74.315,12.406h10.312V0.004H74.315V12.406z"/>
						</g>
						<g>
							<path id="DejaVuSans-54" d="M128.426,40.375c-4.424,0-7.939-1.514-10.527-4.551c-2.588-3.018-3.877-7.158-3.877-12.432
								c0-5.244,1.289-9.385,3.877-12.441c2.588-3.037,6.104-4.561,10.527-4.561s7.93,1.523,10.518,4.561
								c2.578,3.057,3.877,7.197,3.877,12.441c0,5.273-1.299,9.414-3.877,12.432C136.356,38.862,132.85,40.375,128.426,40.375z
								 M148.006,71.293v-8.984c-2.48,1.172-4.98,2.061-7.5,2.676c-2.52,0.625-5.02,0.938-7.5,0.938
								c-6.514,0-11.484-2.197-14.922-6.592c-3.428-4.395-5.391-11.035-5.879-19.922c1.924,2.832,4.326,5,7.227,6.514
								s6.094,2.266,9.57,2.266c7.324,0,13.115-2.227,17.363-6.67s6.377-10.479,6.377-18.125c0-7.49-2.217-13.506-6.641-18.037
								c-4.434-4.521-10.322-6.777-17.676-6.777c-8.438,0-14.883,3.232-19.346,9.688c-4.453,6.465-6.68,15.84-6.68,28.105
								c0,11.523,2.734,20.713,8.203,27.568s12.803,10.283,22.012,10.283c2.48,0,4.98-0.244,7.5-0.742
								C142.635,72.992,145.262,72.27,148.006,71.293z"/>
						</g>
						<g>
							<path id="DejaVuSans-48_18_" d="M190.819,66.41c-5.078,0-8.896-2.5-11.455-7.5c-2.549-4.99-3.828-12.5-3.828-22.539
								c0-9.99,1.279-17.48,3.828-22.48c2.559-5,6.377-7.5,11.455-7.5c5.117,0,8.945,2.5,11.494,7.5
								c2.568,5,3.848,12.49,3.848,22.48c0,10.039-1.279,17.549-3.848,22.539C199.764,63.91,195.936,66.41,190.819,66.41z
								 M190.819,74.223c8.174,0,14.424-3.242,18.73-9.707c4.316-6.455,6.475-15.84,6.475-28.145
								c0-12.266-2.158-21.641-6.475-28.105c-4.307-6.455-10.557-9.688-18.73-9.688c-8.164,0-14.404,3.232-18.721,9.688
								c-4.316,6.465-6.465,15.84-6.465,28.105c0,12.305,2.148,21.689,6.465,28.145C176.415,70.981,182.655,74.223,190.819,74.223z"
								/>
						</g>
						<g>
							<path id="DejaVuSans-48_19_" d="M254.442,66.41c-5.078,0-8.896-2.5-11.455-7.5c-2.549-4.99-3.828-12.5-3.828-22.539
								c0-9.99,1.279-17.48,3.828-22.48c2.559-5,6.377-7.5,11.455-7.5c5.107,0,8.945,2.5,11.494,7.5
								c2.568,5,3.848,12.49,3.848,22.48c0,10.039-1.279,17.549-3.848,22.539C263.387,63.91,259.549,66.41,254.442,66.41z
								 M254.442,74.223c8.174,0,14.424-3.242,18.73-9.707c4.316-6.455,6.475-15.84,6.475-28.145
								c0-12.266-2.158-21.641-6.475-28.105c-4.307-6.455-10.557-9.688-18.73-9.688s-14.404,3.232-18.721,9.688
								c-4.316,6.465-6.465,15.84-6.465,28.105c0,12.305,2.148,21.689,6.465,28.145C240.038,70.981,246.268,74.223,254.442,74.223z"
								/>
						</g>
					</g>
				</g>
			</g>
			<g id="ytick_9">
				<g id="line2d_34">
					<g>
						<g>
							<path id="mda6d75ec53_2_" stroke="#000000" stroke-width="0.8" stroke-linejoin="round" d="M777.6,393.652h3.5"/>
						</g>
					</g>
				</g>
				<g id="text_19">
					<g transform="translate(784.6 397.451618)scale(0.1 -0.1)">
						<g>
							<path id="DejaVuSans-48_20_" d="M31.786,66.411c-5.078,0-8.896-2.5-11.455-7.5c-2.549-5-3.828-12.5-3.828-22.539
								c0-9.98,1.279-17.48,3.828-22.48c2.559-5,6.377-7.5,11.455-7.5c5.107,0,8.945,2.5,11.494,7.5c2.568,5,3.848,12.5,3.848,22.48
								c0,10.039-1.279,17.539-3.848,22.539C40.731,63.911,36.894,66.411,31.786,66.411z M31.786,74.223
								c8.174,0,14.424-3.242,18.73-9.707c4.316-6.465,6.475-15.84,6.475-28.145c0-12.266-2.158-21.641-6.475-28.105
								C46.21,1.811,39.96-1.421,31.786-1.421S17.382,1.811,13.065,8.266c-4.316,6.465-6.465,15.84-6.465,28.105
								c0,12.305,2.148,21.68,6.465,28.145S23.612,74.223,31.786,74.223z"/>
						</g>
						<g>
							<path id="DejaVuSans-46_13_" d="M74.315,12.407h10.312V0.004H74.315V12.407z"/>
						</g>
						<g>
							<path id="DejaVuSans-54_1_" d="M128.427,40.375c-4.424,0-7.939-1.523-10.527-4.551c-2.588-3.018-3.877-7.168-3.877-12.441
								c0-5.234,1.289-9.375,3.877-12.432c2.588-3.037,6.104-4.561,10.527-4.561s7.93,1.523,10.518,4.561
								c2.578,3.057,3.877,7.197,3.877,12.432c0,5.273-1.299,9.424-3.877,12.441C136.356,38.852,132.851,40.375,128.427,40.375z
								 M148.007,71.293v-8.984c-2.48,1.172-4.98,2.061-7.5,2.676c-2.52,0.625-5.02,0.938-7.5,0.938
								c-6.514,0-11.484-2.197-14.922-6.602c-3.428-4.395-5.391-11.035-5.879-19.922c1.924,2.842,4.326,5.01,7.227,6.523
								c2.9,1.504,6.094,2.266,9.57,2.266c7.324,0,13.115-2.227,17.363-6.68c4.248-4.434,6.377-10.469,6.377-18.125
								c0-7.48-2.217-13.496-6.641-18.027c-4.434-4.521-10.322-6.777-17.676-6.777c-8.438,0-14.883,3.232-19.346,9.688
								c-4.453,6.465-6.68,15.84-6.68,28.105c0,11.523,2.734,20.713,8.203,27.559c5.469,6.855,12.803,10.293,22.012,10.293
								c2.48,0,4.98-0.254,7.5-0.742S145.263,72.27,148.007,71.293z"/>
						</g>
						<g>
							<path id="DejaVuSans-50_3_" d="M178.222,8.295h34.424V0.004h-46.279v8.291c3.74,3.877,8.838,9.072,15.293,15.596
								c6.475,6.523,10.537,10.742,12.188,12.637c3.154,3.545,5.361,6.543,6.611,9.004c1.26,2.461,1.895,4.873,1.895,7.246
								c0,3.877-1.367,7.031-4.082,9.473s-6.26,3.672-10.625,3.672c-3.096,0-6.357-0.537-9.795-1.611
								c-3.428-1.074-7.1-2.705-11.006-4.893v9.971c3.975,1.592,7.686,2.803,11.133,3.604c3.457,0.82,6.611,1.23,9.482,1.23
								c7.549,0,13.574-1.895,18.057-5.684c4.492-3.77,6.738-8.809,6.738-15.117c0-3.008-0.566-5.84-1.689-8.535
								c-1.113-2.676-3.154-5.84-6.123-9.482c-0.811-0.947-3.398-3.682-7.764-8.193C192.323,22.709,186.171,16.401,178.222,8.295z"
								/>
						</g>
						<g>
							<path id="DejaVuSans-53_7_" d="M233.456,72.905h38.721v-8.311h-29.688V46.733c1.426,0.488,2.852,0.85,4.277,1.094
								c1.436,0.244,2.881,0.361,4.316,0.361c8.135,0,14.58-2.227,19.326-6.689c4.756-4.463,7.139-10.498,7.139-18.115
								c0-7.832-2.441-13.936-7.324-18.291c-4.893-4.346-11.777-6.514-20.654-6.514c-3.066,0-6.191,0.264-9.365,0.781
								c-3.164,0.518-6.445,1.299-9.824,2.344v9.922c2.92-1.602,5.947-2.783,9.072-3.564s6.426-1.172,9.912-1.172
								c5.635,0,10.088,1.484,13.369,4.443c3.291,2.949,4.941,6.973,4.941,12.051s-1.65,9.102-4.941,12.051
								c-3.281,2.969-7.734,4.453-13.369,4.453c-2.637,0-5.264-0.293-7.891-0.879c-2.617-0.576-5.293-1.484-8.018-2.734V72.905z"/>
						</g>
					</g>
				</g>
			</g>
			<g id="ytick_10">
				<g id="line2d_35">
					<g>
						<g>
							<path id="mda6d75ec53_3_" stroke="#000000" stroke-width="0.8" stroke-linejoin="round" d="M777.6,341.747h3.5"/>
						</g>
					</g>
				</g>
				<g id="text_20">
					<g transform="translate(784.6 345.546366)scale(0.1 -0.1)">
						<g>
							<path id="DejaVuSans-48_21_" d="M31.787,66.401c-5.078,0-8.896-2.5-11.455-7.5c-2.549-4.98-3.828-12.5-3.828-22.52
								c0-10,1.279-17.49,3.828-22.49c2.559-5,6.377-7.5,11.455-7.5c5.107,0,8.945,2.5,11.494,7.5c2.568,5,3.848,12.49,3.848,22.49
								c0,10.02-1.279,17.539-3.848,22.52C40.732,63.901,36.894,66.401,31.787,66.401z M31.787,74.213
								c8.174,0,14.424-3.223,18.73-9.697c4.316-6.455,6.475-15.84,6.475-28.135c0-12.275-2.158-21.641-6.475-28.115
								C46.21,1.811,39.96-1.421,31.787-1.421S17.382,1.811,13.066,8.266c-4.316,6.475-6.465,15.84-6.465,28.115
								c0,12.295,2.148,21.68,6.465,28.135C17.382,70.991,23.613,74.213,31.787,74.213z"/>
						</g>
						<g>
							<path id="DejaVuSans-46_14_" d="M74.316,12.407h10.312V-0.005H74.316V12.407z"/>
						</g>
						<g>
							<path id="DejaVuSans-54_2_" d="M128.427,40.375c-4.424,0-7.939-1.514-10.527-4.541s-3.877-7.168-3.877-12.441
								c0-5.244,1.289-9.395,3.877-12.441s6.104-4.561,10.527-4.561s7.93,1.514,10.518,4.561c2.578,3.047,3.877,7.197,3.877,12.441
								c0,5.273-1.299,9.414-3.877,12.441C136.357,38.862,132.851,40.375,128.427,40.375z M148.007,71.303v-8.984
								c-2.48,1.162-4.98,2.051-7.5,2.666c-2.52,0.625-5.02,0.938-7.5,0.938c-6.514,0-11.484-2.197-14.922-6.592
								c-3.428-4.395-5.391-11.035-5.879-19.922c1.924,2.832,4.326,5,7.227,6.514s6.094,2.266,9.57,2.266
								c7.324,0,13.115-2.227,17.363-6.67c4.248-4.434,6.377-10.488,6.377-18.125c0-7.49-2.217-13.496-6.641-18.027
								c-4.434-4.531-10.322-6.787-17.676-6.787c-8.438,0-14.883,3.232-19.346,9.688c-4.453,6.475-6.68,15.84-6.68,28.115
								c0,11.514,2.734,20.703,8.203,27.559s12.803,10.273,22.012,10.273c2.48,0,4.98-0.234,7.5-0.723
								C142.636,72.993,145.263,72.26,148.007,71.303z"/>
						</g>
						<g>
							<path id="DejaVuSans-53_8_" d="M169.833,72.905h38.721v-8.311h-29.688V46.733c1.426,0.488,2.852,0.859,4.277,1.094
								c1.436,0.234,2.881,0.361,4.316,0.361c8.135,0,14.58-2.236,19.326-6.689c4.756-4.453,7.139-10.488,7.139-18.105
								c0-7.852-2.441-13.945-7.324-18.301c-4.883-4.336-11.777-6.514-20.654-6.514c-3.066,0-6.182,0.264-9.365,0.781
								c-3.164,0.518-6.445,1.299-9.824,2.344v9.922c2.93-1.592,5.947-2.783,9.072-3.564s6.436-1.172,9.912-1.172
								c5.635,0,10.088,1.484,13.369,4.434c3.291,2.969,4.941,6.982,4.941,12.07c0,5.068-1.65,9.082-4.941,12.051
								c-3.281,2.969-7.734,4.453-13.369,4.453c-2.637,0-5.264-0.293-7.891-0.879c-2.617-0.586-5.293-1.504-8.018-2.734V72.905z"/>
						</g>
						<g>
							<path id="DejaVuSans-48_22_" d="M254.443,66.401c-5.078,0-8.896-2.5-11.455-7.5c-2.549-4.98-3.828-12.5-3.828-22.52
								c0-10,1.279-17.49,3.828-22.49c2.559-5,6.377-7.5,11.455-7.5c5.107,0,8.945,2.5,11.494,7.5c2.568,5,3.848,12.49,3.848,22.49
								c0,10.02-1.279,17.539-3.848,22.52C263.388,63.901,259.55,66.401,254.443,66.401z M254.443,74.213
								c8.174,0,14.424-3.223,18.73-9.697c4.316-6.455,6.475-15.84,6.475-28.135c0-12.275-2.158-21.641-6.475-28.115
								c-4.307-6.455-10.557-9.688-18.73-9.688s-14.404,3.232-18.721,9.688c-4.316,6.475-6.465,15.84-6.465,28.115
								c0,12.295,2.148,21.68,6.465,28.135C240.039,70.991,246.269,74.213,254.443,74.213z"/>
						</g>
					</g>
				</g>
			</g>
			<g id="ytick_11">
				<g id="line2d_36">
					<g>
						<g>
							<path id="mda6d75ec53_4_" stroke="#000000" stroke-width="0.8" stroke-linejoin="round" d="M777.6,289.842h3.5"/>
						</g>
					</g>
				</g>
				<g id="text_21">
					<g transform="translate(784.6 293.641114)scale(0.1 -0.1)">
						<g>
							<path id="DejaVuSans-48_23_" d="M31.787,66.406c-5.078,0-8.896-2.5-11.455-7.5c-2.549-4.99-3.828-12.495-3.828-22.534
								c0-9.98,1.279-17.48,3.828-22.48c2.559-5,6.377-7.5,11.455-7.5c5.107,0,8.945,2.5,11.494,7.5c2.568,5,3.848,12.5,3.848,22.48
								c0,10.039-1.279,17.544-3.848,22.534C40.732,63.906,36.895,66.406,31.787,66.406z M31.787,74.219
								c8.174,0,14.424-3.232,18.73-9.702c4.316-6.46,6.475-15.84,6.475-28.145c0-12.266-2.158-21.641-6.475-28.105
								c-4.307-6.465-10.557-9.688-18.73-9.688S17.383,1.802,13.066,8.266s-6.465,15.84-6.465,28.105
								c0,12.305,2.148,21.685,6.465,28.145C17.383,70.986,23.613,74.219,31.787,74.219z"/>
						</g>
						<g>
							<path id="DejaVuSans-46_15_" d="M74.316,12.407h10.312V0.005H74.316V12.407z"/>
						</g>
						<g>
							<path id="DejaVuSans-54_3_" d="M128.428,40.376c-4.424,0-7.939-1.523-10.527-4.551c-2.588-3.018-3.877-7.168-3.877-12.441
								c0-5.234,1.289-9.375,3.877-12.432c2.588-3.037,6.104-4.561,10.527-4.561s7.93,1.523,10.518,4.561
								c2.578,3.057,3.877,7.197,3.877,12.432c0,5.273-1.299,9.424-3.877,12.441C136.357,38.852,132.852,40.376,128.428,40.376z
								 M148.008,71.299v-8.984c-2.48,1.167-4.98,2.056-7.5,2.671c-2.52,0.625-5.02,0.938-7.5,0.938
								c-6.514,0-11.484-2.197-14.922-6.597c-3.428-4.395-5.391-11.04-5.879-19.927c1.924,2.842,4.326,5.01,7.227,6.523
								c2.9,1.504,6.094,2.266,9.57,2.266c7.324,0,13.115-2.227,17.363-6.68c4.248-4.434,6.377-10.469,6.377-18.125
								c0-7.48-2.217-13.496-6.641-18.027c-4.434-4.512-10.322-6.777-17.676-6.777c-8.438,0-14.883,3.223-19.346,9.688
								c-4.453,6.465-6.68,15.84-6.68,28.105c0,11.523,2.734,20.713,8.203,27.563c5.469,6.855,12.803,10.283,22.012,10.283
								c2.48,0,4.98-0.244,7.5-0.732C142.637,72.993,145.264,72.265,148.008,71.299z"/>
						</g>
						<g>
							<path id="DejaVuSans-55_1_" d="M167.236,72.905h46.875v-4.204L187.646,0.005h-10.293l24.902,64.59h-35.02V72.905z"/>
						</g>
						<g>
							<path id="DejaVuSans-53_9_" d="M233.457,72.905h38.721v-8.311H242.49V46.733c1.426,0.488,2.852,0.85,4.277,1.094
								c1.436,0.244,2.881,0.361,4.316,0.361c8.135,0,14.58-2.227,19.326-6.689c4.756-4.463,7.139-10.498,7.139-18.115
								c0-7.832-2.441-13.936-7.324-18.291c-4.893-4.346-11.777-6.514-20.654-6.514c-3.066,0-6.191,0.254-9.365,0.781
								c-3.164,0.518-6.445,1.299-9.824,2.344v9.922c2.92-1.602,5.947-2.783,9.072-3.564s6.426-1.172,9.912-1.172
								c5.635,0,10.088,1.475,13.369,4.443c3.291,2.949,4.941,6.973,4.941,12.051s-1.65,9.102-4.941,12.051
								c-3.281,2.969-7.734,4.453-13.369,4.453c-2.637,0-5.264-0.293-7.891-0.879c-2.617-0.576-5.293-1.484-8.018-2.734V72.905z"/>
						</g>
					</g>
				</g>
			</g>
			<g id="ytick_12">
				<g id="line2d_37">
					<g>
						<g>
							<path id="mda6d75ec53_5_" stroke="#000000" stroke-width="0.8" stroke-linejoin="round" d="M777.6,237.937h3.5"/>
						</g>
					</g>
				</g>
				<g id="text_22">
					<g transform="translate(784.6 241.735861)scale(0.1 -0.1)">
						<g>
							<path id="DejaVuSans-48_24_" d="M31.788,66.406c-5.078,0-8.896-2.5-11.455-7.5c-2.549-4.99-3.828-12.5-3.828-22.529
								c0-9.99,1.279-17.485,3.828-22.485c2.559-5,6.377-7.5,11.455-7.5c5.107,0,8.945,2.5,11.494,7.5
								c2.568,5,3.848,12.495,3.848,22.485c0,10.029-1.279,17.539-3.848,22.529C40.733,63.906,36.895,66.406,31.788,66.406z
								 M31.788,74.219c8.174,0,14.424-3.232,18.73-9.702c4.316-6.46,6.475-15.84,6.475-28.14c0-12.271-2.158-21.641-6.475-28.11
								c-4.307-6.46-10.557-9.688-18.73-9.688S17.383,1.807,13.067,8.267c-4.316,6.47-6.465,15.84-6.465,28.11
								c0,12.3,2.148,21.68,6.465,28.14C17.383,70.986,23.614,74.219,31.788,74.219z"/>
						</g>
						<g>
							<path id="DejaVuSans-46_16_" d="M74.317,12.407h10.312V0H74.317V12.407z"/>
						</g>
						<g>
							<path id="DejaVuSans-55_2_" d="M103.614,72.905h46.875v-4.204L124.024,0h-10.293l24.902,64.595h-35.02V72.905z"/>
						</g>
						<g>
							<path id="DejaVuSans-48_25_" d="M190.821,66.406c-5.078,0-8.896-2.5-11.455-7.5c-2.549-4.99-3.828-12.5-3.828-22.529
								c0-9.99,1.279-17.485,3.828-22.485c2.559-5,6.377-7.5,11.455-7.5c5.117,0,8.945,2.5,11.494,7.5
								c2.568,5,3.848,12.495,3.848,22.485c0,10.029-1.279,17.539-3.848,22.529C199.766,63.906,195.938,66.406,190.821,66.406z
								 M190.821,74.219c8.174,0,14.424-3.232,18.73-9.702c4.316-6.46,6.475-15.84,6.475-28.14c0-12.271-2.158-21.641-6.475-28.11
								c-4.307-6.46-10.557-9.688-18.73-9.688c-8.164,0-14.404,3.228-18.721,9.688c-4.316,6.47-6.465,15.84-6.465,28.11
								c0,12.3,2.148,21.68,6.465,28.14C176.417,70.986,182.657,74.219,190.821,74.219z"/>
						</g>
						<g>
							<path id="DejaVuSans-48_26_" d="M254.444,66.406c-5.078,0-8.896-2.5-11.455-7.5c-2.549-4.99-3.828-12.5-3.828-22.529
								c0-9.99,1.279-17.485,3.828-22.485c2.559-5,6.377-7.5,11.455-7.5c5.107,0,8.945,2.5,11.494,7.5
								c2.568,5,3.848,12.495,3.848,22.485c0,10.029-1.279,17.539-3.848,22.529C263.389,63.906,259.551,66.406,254.444,66.406z
								 M254.444,74.219c8.174,0,14.424-3.232,18.73-9.702c4.316-6.46,6.475-15.84,6.475-28.14c0-12.271-2.158-21.641-6.475-28.11
								c-4.307-6.46-10.557-9.688-18.73-9.688s-14.404,3.228-18.721,9.688c-4.316,6.47-6.465,15.84-6.465,28.11
								c0,12.3,2.148,21.68,6.465,28.14C240.04,70.986,246.27,74.219,254.444,74.219z"/>
						</g>
					</g>
				</g>
			</g>
			<g id="ytick_13">
				<g id="line2d_38">
					<g>
						<g>
							<path id="mda6d75ec53_6_" stroke="#000000" stroke-width="0.8" stroke-linejoin="round" d="M777.6,186.031h3.5"/>
						</g>
					</g>
				</g>
				<g id="text_23">
					<g transform="translate(784.6 189.830609)scale(0.1 -0.1)">
						<g>
							<path id="DejaVuSans-48_27_" d="M31.788,66.407c-5.078,0-8.896-2.5-11.455-7.5c-2.549-4.99-3.828-12.5-3.828-22.534
								c0-9.985,1.279-17.48,3.828-22.48c2.559-5,6.377-7.5,11.455-7.5c5.107,0,8.945,2.5,11.494,7.5
								c2.568,5,3.848,12.495,3.848,22.48c0,10.034-1.279,17.544-3.848,22.534C40.733,63.907,36.895,66.407,31.788,66.407z
								 M31.788,74.219c8.174,0,14.424-3.237,18.73-9.702c4.316-6.46,6.475-15.84,6.475-28.145c0-12.271-2.158-21.641-6.475-28.105
								c-4.307-6.46-10.557-9.688-18.73-9.688S17.383,1.807,13.067,8.267C8.75,14.732,6.602,24.102,6.602,36.373
								c0,12.305,2.148,21.685,6.465,28.145C17.383,70.982,23.614,74.219,31.788,74.219z"/>
						</g>
						<g>
							<path id="DejaVuSans-46_17_" d="M74.317,12.408h10.312V0H74.317V12.408z"/>
						</g>
						<g>
							<path id="DejaVuSans-55_3_" d="M103.614,72.906h46.875v-4.204L124.024,0h-10.293l24.902,64.595h-35.02V72.906z"/>
						</g>
						<g>
							<path id="DejaVuSans-50_4_" d="M178.223,8.296h34.424V0h-46.279v8.296c3.74,3.877,8.838,9.072,15.293,15.596
								c6.475,6.528,10.537,10.742,12.188,12.637c3.154,3.545,5.361,6.543,6.611,9.004c1.26,2.456,1.895,4.873,1.895,7.246
								c0,3.877-1.367,7.031-4.082,9.473c-2.715,2.446-6.26,3.672-10.625,3.672c-3.096,0-6.357-0.537-9.795-1.611
								c-3.428-1.074-7.1-2.705-11.006-4.893v9.971c3.975,1.592,7.686,2.798,11.133,3.608c3.457,0.815,6.611,1.221,9.482,1.221
								c7.549,0,13.574-1.89,18.057-5.674c4.492-3.77,6.738-8.813,6.738-15.122c0-3.003-0.566-5.845-1.689-8.535
								c-1.113-2.676-3.154-5.835-6.123-9.482c-0.811-0.947-3.398-3.677-7.764-8.188C192.325,22.71,186.172,16.402,178.223,8.296z"
								/>
						</g>
						<g>
							<path id="DejaVuSans-53_10_" d="M233.458,72.906h38.721v-8.311h-29.688V46.734c1.426,0.488,2.852,0.854,4.277,1.094
								c1.436,0.239,2.881,0.361,4.316,0.361c8.135,0,14.58-2.231,19.326-6.689c4.756-4.458,7.139-10.493,7.139-18.11
								c0-7.842-2.441-13.94-7.324-18.296c-4.893-4.346-11.777-6.514-20.654-6.514c-3.066,0-6.191,0.259-9.365,0.781
								c-3.164,0.518-6.445,1.299-9.824,2.344v9.922c2.92-1.597,5.947-2.783,9.072-3.564s6.426-1.172,9.912-1.172
								c5.635,0,10.088,1.479,13.369,4.438c3.291,2.959,4.941,6.978,4.941,12.061c0,5.073-1.65,9.092-4.941,12.046
								c-3.281,2.969-7.734,4.453-13.369,4.453c-2.637,0-5.264-0.288-7.891-0.874c-2.617-0.581-5.293-1.494-8.018-2.734V72.906z"/>
						</g>
					</g>
				</g>
			</g>
			<g id="ytick_14">
				<g id="line2d_39">
					<g>
						<g>
							<path id="mda6d75ec53_7_" stroke="#000000" stroke-width="0.8" stroke-linejoin="round" d="M777.6,134.126h3.5"/>
						</g>
					</g>
				</g>
				<g id="text_24">
					<g transform="translate(784.6 137.925357)scale(0.1 -0.1)">
						<g>
							<path id="DejaVuSans-48_28_" d="M31.788,66.408c-5.078,0-8.896-2.5-11.455-7.5c-2.549-4.99-3.828-12.5-3.828-22.534
								c0-9.985,1.279-17.48,3.828-22.48c2.559-5,6.377-7.5,11.455-7.5c5.107,0,8.945,2.5,11.494,7.5
								c2.568,5,3.848,12.495,3.848,22.48c0,10.034-1.279,17.544-3.848,22.534C40.733,63.908,36.895,66.408,31.788,66.408z
								 M31.788,74.22c8.174,0,14.424-3.237,18.73-9.702c4.316-6.46,6.475-15.84,6.475-28.145c0-12.271-2.158-21.641-6.475-28.105
								c-4.307-6.46-10.557-9.688-18.73-9.688S17.383,1.808,13.067,8.268C8.75,14.733,6.602,24.103,6.602,36.374
								c0,12.305,2.148,21.685,6.465,28.145C17.383,70.983,23.614,74.22,31.788,74.22z"/>
						</g>
						<g>
							<path id="DejaVuSans-46_18_" d="M74.317,12.409h10.312V0.001H74.317V12.409z"/>
						</g>
						<g>
							<path id="DejaVuSans-55_4_" d="M103.614,72.907h46.875v-4.204L124.024,0.001h-10.293l24.902,64.595h-35.02V72.907z"/>
						</g>
						<g>
							<path id="DejaVuSans-53_11_" d="M169.834,72.907h38.721v-8.311h-29.688V46.735c1.426,0.488,2.852,0.854,4.277,1.094
								c1.436,0.239,2.881,0.361,4.316,0.361c8.135,0,14.58-2.231,19.326-6.689c4.756-4.458,7.139-10.493,7.139-18.11
								c0-7.842-2.441-13.94-7.324-18.296c-4.883-4.346-11.777-6.514-20.654-6.514c-3.066,0-6.182,0.259-9.365,0.781
								c-3.164,0.518-6.445,1.299-9.824,2.344v9.922c2.93-1.597,5.947-2.783,9.072-3.564s6.436-1.172,9.912-1.172
								c5.635,0,10.088,1.479,13.369,4.438c3.291,2.959,4.941,6.978,4.941,12.061c0,5.073-1.65,9.092-4.941,12.046
								c-3.281,2.969-7.734,4.453-13.369,4.453c-2.637,0-5.264-0.288-7.891-0.874c-2.617-0.581-5.293-1.494-8.018-2.734V72.907z"/>
						</g>
						<g>
							<path id="DejaVuSans-48_29_" d="M254.444,66.408c-5.078,0-8.896-2.5-11.455-7.5c-2.549-4.99-3.828-12.5-3.828-22.534
								c0-9.985,1.279-17.48,3.828-22.48c2.559-5,6.377-7.5,11.455-7.5c5.107,0,8.945,2.5,11.494,7.5
								c2.568,5,3.848,12.495,3.848,22.48c0,10.034-1.279,17.544-3.848,22.534C263.389,63.908,259.551,66.408,254.444,66.408z
								 M254.444,74.22c8.174,0,14.424-3.237,18.73-9.702c4.316-6.46,6.475-15.84,6.475-28.145c0-12.271-2.158-21.641-6.475-28.105
								c-4.307-6.46-10.557-9.688-18.73-9.688s-14.404,3.228-18.721,9.688c-4.316,6.465-6.465,15.835-6.465,28.105
								c0,12.305,2.148,21.685,6.465,28.145C240.04,70.983,246.27,74.22,254.444,74.22z"/>
						</g>
					</g>
				</g>
			</g>
			<g id="ytick_15">
				<g id="line2d_40">
					<g>
						<g>
							<path id="mda6d75ec53_8_" stroke="#000000" stroke-width="0.8" stroke-linejoin="round" d="M777.6,82.221h3.5"/>
						</g>
					</g>
				</g>
				<g id="text_25">
					<g transform="translate(784.6 86.020104)scale(0.1 -0.1)">
						<g>
							<path id="DejaVuSans-48_30_" d="M31.788,66.409c-5.078,0-8.896-2.5-11.455-7.5c-2.549-4.99-3.828-12.5-3.828-22.534
								c0-9.985,1.279-17.48,3.828-22.48c2.559-5,6.377-7.5,11.455-7.5c5.107,0,8.945,2.5,11.494,7.5
								c2.568,5,3.848,12.495,3.848,22.48c0,10.034-1.279,17.544-3.848,22.534C40.733,63.909,36.895,66.409,31.788,66.409z
								 M31.788,74.221c8.174,0,14.424-3.237,18.73-9.702c4.316-6.46,6.475-15.84,6.475-28.145c0-12.271-2.158-21.641-6.475-28.105
								c-4.307-6.46-10.557-9.688-18.73-9.688S17.383,1.809,13.067,8.269C8.75,14.734,6.602,24.104,6.602,36.375
								c0,12.305,2.148,21.685,6.465,28.145C17.383,70.984,23.614,74.221,31.788,74.221z"/>
						</g>
						<g>
							<path id="DejaVuSans-46_19_" d="M74.317,12.41h10.312V0.002H74.317V12.41z"/>
						</g>
						<g>
							<path id="DejaVuSans-55_5_" d="M103.614,72.908h46.875v-4.204L124.024,0.002h-10.293l24.902,64.595h-35.02V72.908z"/>
						</g>
						<g>
							<path id="DejaVuSans-55_6_" d="M167.237,72.908h46.875v-4.204L187.647,0.002h-10.293l24.902,64.595h-35.02V72.908z"/>
						</g>
						<g>
							<path id="DejaVuSans-53_12_" d="M233.458,72.908h38.721v-8.311h-29.688V46.736c1.426,0.488,2.852,0.854,4.277,1.094
								c1.436,0.239,2.881,0.361,4.316,0.361c8.135,0,14.58-2.231,19.326-6.689c4.756-4.458,7.139-10.493,7.139-18.11
								c0-7.842-2.441-13.94-7.324-18.296c-4.893-4.346-11.777-6.514-20.654-6.514c-3.066,0-6.191,0.259-9.365,0.781
								c-3.164,0.518-6.445,1.299-9.824,2.344v9.922c2.92-1.597,5.947-2.783,9.072-3.564s6.426-1.172,9.912-1.172
								c5.635,0,10.088,1.479,13.369,4.438c3.291,2.959,4.941,6.978,4.941,12.061c0,5.073-1.65,9.092-4.941,12.046
								c-3.281,2.969-7.734,4.453-13.369,4.453c-2.637,0-5.264-0.288-7.891-0.874c-2.617-0.581-5.293-1.494-8.018-2.734V72.908z"/>
						</g>
					</g>
				</g>
			</g>
			<g id="text_26">
				<g transform="translate(824.826563 305.744062)rotate(-90)scale(0.1 -0.1)">
					<g>
						<path id="DejaVuSans-88_1_" d="M6.3,72.9h10.596l18.125-27.109L53.224,72.9H63.81L40.373,37.89L65.372,0H54.787L34.279,30.996
							L13.634,0H2.99l26.016,38.916L6.3,72.9z"/>
					</g>
					<g>
						<path id="DejaVuSans-32_2_" d="M68.507,0"/>
					</g>
					<g>
						<path id="DejaVuSans-40_2_" d="M131.29,75.869c-4.355-7.48-7.588-14.883-9.707-22.217c-2.119-7.324-3.184-14.746-3.184-22.266
							c0-7.51,1.074-14.951,3.203-22.324c2.139-7.383,5.371-14.795,9.688-22.256h-7.812c-4.863,7.656-8.516,15.176-10.947,22.568
							c-2.432,7.383-3.643,14.717-3.643,22.012c0,7.266,1.211,14.57,3.613,21.924c2.412,7.363,6.074,14.883,10.977,22.559H131.29z"
							/>
					</g>
					<g>
						<path id="DejaVuSans-70" d="M149.122,72.9h41.89v-8.311h-32.026V43.105h28.901v-8.301h-28.901V0h-9.863V72.9z"/>
					</g>
					<g>
						<path id="DejaVuSans-101" d="M252.955,29.589v-4.395h-41.313c0.396-6.182,2.261-10.898,5.591-14.141
							c3.335-3.232,7.983-4.854,13.94-4.854c3.447,0,6.792,0.42,10.029,1.26c3.242,0.85,6.46,2.119,9.658,3.818V2.773
							c-3.232-1.357-6.538-2.402-9.922-3.125c-3.389-0.713-6.816-1.074-10.298-1.074c-8.73,0-15.64,2.539-20.732,7.607
							c-5.098,5.088-7.642,11.963-7.642,20.625c0,8.955,2.417,16.045,7.251,21.299c4.829,5.264,11.353,7.891,19.561,7.891
							c7.354,0,13.174-2.373,17.451-7.109C250.812,44.16,252.955,37.724,252.955,29.589z M243.971,32.226
							c-0.063,4.912-1.44,8.828-4.126,11.758c-2.69,2.93-6.245,4.404-10.674,4.404c-5.01,0-9.019-1.416-12.031-4.248
							c-3.008-2.832-4.746-6.826-5.2-11.973L243.971,32.226z"/>
					</g>
					<g>
						<path id="DejaVuSans-41_2_" d="M266.29,75.869h7.812c4.873-7.676,8.525-15.195,10.952-22.559
							c2.427-7.354,3.643-14.658,3.643-21.924c0-7.295-1.216-14.629-3.643-22.012c-2.427-7.393-6.079-14.912-10.952-22.568h-7.812
							c4.321,7.461,7.549,14.873,9.688,22.256c2.134,7.373,3.203,14.814,3.203,22.324c0,7.52-1.069,14.941-3.203,22.266
							C273.839,60.986,270.612,68.388,266.29,75.869z"/>
					</g>
				</g>
			</g>
		</g>
		<g id="line2d_41">
			<g>
				<defs>
					<rect id="SVGID_29_" x="108" y="69.12" width="669.6" height="443.52"/>
				</defs>
				<clipPath id="SVGID_30_">
					<use xlink:href="#SVGID_29_"  overflow="visible"/>
				</clipPath>
				<path clip-path="url(#SVGID_30_)" fill="none" stroke="#FF0000" stroke-linecap="square" stroke-linejoin="round" d="
					M138.437,480.007l123.173,0.175l0.16,0.049l5.516-0.623l5.516,12.873l5.516-12.665l5.516,1.661l5.516-1.246l5.516,6.644
					l5.516-3.944l5.516-5.813l5.516,8.928l5.516-2.491l5.516,0.83l5.517-0.415l5.516-4.775l5.516-1.453l5.516,6.021l5.517-9.551
					l5.516-1.66l5.516-2.492l5.516-0.83l5.516-2.699l5.517-7.059l5.516-3.322l11.031-0.623l5.517-7.267l5.516-4.983l5.516,0.208
					l5.516-8.72l5.516-0.416l5.517-0.83l5.516-5.19l5.516-7.267l5.516-5.398l5.517,1.246l5.516-15.364l5.516-1.661l5.516-3.736
					l5.516-10.174l5.517-8.098l5.516,0.208l5.516-7.267l5.516-11.835l5.517-0.622l5.516-0.416l5.516-14.326l5.516,0.208l5.516-8.928
					l5.517-5.605l5.516-8.72l5.516-10.381l5.516-2.285l5.517-6.852l5.516-7.474l5.516-12.042l5.516-6.852l5.516-4.983l5.517-6.021
					l5.516-10.173l5.516-3.322l5.516-3.945l5.517-7.267l5.516-5.398l5.516-4.36l5.516,8.72l5.516-18.686l5.517-5.191l5.516-6.229
					l5.516-7.059l5.516-17.855l5.517,4.36l5.516-0.623l5.516-13.08l5.516,9.55l5.516-18.063l5.517-9.55l5.516-7.475l5.516-7.682
					l5.516-6.644l5.517,2.491l5.516-20.347l5.516,16.817l5.516-2.907l5.516-14.534l5.517-15.987l5.516,0.623l5.516,0.623
					l5.516-5.191l5.517-6.021"/>
			</g>
		</g>
		<g id="patch_8">
			<path fill="none" stroke="#000000" stroke-width="0.8" stroke-linecap="square" d="M108,512.639V69.12"/>
		</g>
		<g id="patch_9">
			<path fill="none" stroke="#000000" stroke-width="0.8" stroke-linecap="square" d="M777.6,512.639V69.12"/>
		</g>
		<g id="patch_10">
			<path fill="none" stroke="#000000" stroke-width="0.8" stroke-linecap="square" d="M108,512.639h669.6"/>
		</g>
		<g id="patch_11">
			<path fill="none" stroke="#000000" stroke-width="0.8" stroke-linecap="square" d="M108,69.12h669.6"/>
		</g>
		<g id="legend_2">
			<g id="line2d_42">
				<path fill="none" stroke="#FF0000" stroke-linecap="square" stroke-linejoin="round" d="M121.045,197.599h28"/>
			</g>
			<g id="line2d_43">
			</g>
			<g id="text_27">
				<g transform="translate(748.344375 92.357812)scale(0.14 -0.14)">
					<g>
						<path id="DejaVuSans-70_1_" d="M-4190.898-713.817h41.895v-8.311h-32.031v-21.484h28.906v-8.297h-28.906v-34.814h-9.863
							V-713.817z"/>
					</g>
					<g>
						<path id="DejaVuSans-101_1_" d="M-4087.062-757.131v-4.388h-41.315c0.397-6.191,2.26-10.903,5.594-14.143
							c3.334-3.24,7.98-4.858,13.937-4.858c3.446,0,6.794,0.422,10.031,1.266c3.243,0.844,6.459,2.114,9.661,3.812v-8.5
							c-3.229-1.367-6.536-2.406-9.926-3.125c-3.383-0.718-6.815-1.078-10.296-1.078c-8.726,0-15.639,2.536-20.731,7.607
							c-5.099,5.085-7.645,11.959-7.645,20.626c0,8.946,2.42,16.047,7.254,21.296c4.827,5.263,11.349,7.893,19.559,7.893
							c7.352,0,13.169-2.372,17.453-7.111C-4089.204-742.563-4087.062-748.994-4087.062-757.131z M-4096.046-754.488
							c-0.063,4.904-1.437,8.821-4.129,11.747c-2.686,2.94-6.243,4.408-10.672,4.408c-5.008,0-9.02-1.416-12.026-4.252
							c-3.013-2.832-4.75-6.822-5.204-11.966L-4096.046-754.488z"/>
					</g>
				</g>
			</g>
		</g>
	</g>
</g>
</svg>
