<?xml version="1.0" encoding="utf-8"?>
<!-- Generator: Adobe Illustrator 14.0.0, SVG Export Plug-In . SVG Version: 6.00 Build 43363)  -->
<!DOCTYPE svg PUBLIC "-//W3C//DTD SVG 1.1//EN" "http://www.w3.org/Graphics/SVG/1.1/DTD/svg11.dtd">
<svg version="1.1" id="Layer_1" xmlns="http://www.w3.org/2000/svg" xmlns:xlink="http://www.w3.org/1999/xlink" x="0px" y="0px"
	 width="612px" height="612px" viewBox="0 0 612 612" enable-background="new 0 0 612 612" xml:space="preserve">
<rect x="43.625" y="414.057" fill="#FFFFFF" stroke="#010101" stroke-width="2" width="252" height="162"/>
<circle fill="#FAED24" stroke="#010101" cx="144.958" cy="538.057" r="30.042"/>
<rect x="43.625" y="37.057" fill="#FFFFFF" stroke="#010101" stroke-width="2" width="252" height="162"/>
<rect x="317.25" y="37.057" fill="#FFFFFF" stroke="#010101" stroke-width="2" width="252" height="162"/>
<rect x="43.625" y="225.057" fill="#FFFFFF" stroke="#010101" stroke-width="2" width="252" height="162"/>
<rect x="316.375" y="225.057" fill="#FFFFFF" stroke="#010101" stroke-width="2" width="253.75" height="162"/>
<rect x="316.375" y="414.057" fill="#FFFFFF" stroke="#010101" stroke-width="2" width="253.75" height="162"/>
<circle fill="#2BACE2" stroke="#010101" cx="88.792" cy="84.89" r="17.5"/>
<circle fill="#2BACE2" stroke="#010101" cx="144.958" cy="161.057" r="28.333"/>
<circle fill="#2BACE2" stroke="#010101" cx="206.792" cy="98.057" r="13.167"/>
<circle fill="#2BACE2" stroke="#010101" cx="247.875" cy="149.974" r="21.25"/>
<circle fill="#2BACE2" stroke="#010101" cx="155.208" cy="97.64" r="18.083"/>
<circle fill="#2BACE2" stroke="#010101" cx="244.625" cy="68.557" r="7.5"/>
<circle fill="#2BACE2" stroke="#010101" cx="76.458" cy="153.39" r="12.333"/>
<circle fill="#2BACE2" stroke="#010101" cx="137.125" cy="55.557" r="15.75"/>
<line fill="none" stroke="#010101" x1="144.958" y1="161.057" x2="152.875" y2="161.057"/>
<line fill="none" stroke="#010101" x1="144.958" y1="158.724" x2="144.958" y2="162.724"/>
<text transform="matrix(1 0 0 1 154.625 162.7231)" fill="#010101" font-family="'MyriadPro-It'" font-size="8">r</text>
<text transform="matrix(0.583 0 0 0.583 157.1689 165.3872)" fill="#010101" font-family="'MyriadPro-It'" font-size="8">G1</text>
<line fill="none" stroke="#010101" x1="163.369" y1="161.057" x2="173.292" y2="161.057"/>
<text transform="matrix(1 0 0 1 255.375 144.2231)" fill="#010101" font-family="'MyriadPro-It'" font-size="8">r</text>
<text transform="matrix(0.583 0 0 0.583 257.9189 146.8872)" fill="#010101" font-family="'MyriadPro-It'" font-size="8">G2</text>
<line fill="none" stroke="#010101" x1="247.875" y1="149.607" x2="269.125" y2="149.607"/>
<line fill="none" stroke="#010101" x1="247.875" y1="147.607" x2="247.875" y2="151.607"/>
<text transform="matrix(1 0 0 1 191.792 185.8428)" fill="#010101" font-family="'MyriadPro-It'" font-size="12">r</text>
<text transform="matrix(0.583 0 0 0.583 195.6079 189.8389)" fill="#010101" font-family="'MyriadPro-It'" font-size="12">G1 </text>
<text transform="matrix(1 0 0 1 204.6816 185.8428)" fill="#010101" font-family="'MyriadPro-Regular'" font-size="12">=</text>
<text transform="matrix(1 0 0 1 211.8335 185.8428)" fill="#010101" font-family="'MyriadPro-It'" font-size="12"> r</text>
<text transform="matrix(0.583 0 0 0.583 217.833 189.8389)" fill="#010101" font-family="'MyriadPro-It'" font-size="12">b</text>
<circle fill="#ED2224" stroke="#010101" cx="418.583" cy="161.057" r="7.75"/>
<line fill="none" stroke="#010101" x1="418.583" y1="161.057" x2="418.583" y2="145.557"/>
<line fill="none" stroke="#010101" x1="426.333" y1="161.057" x2="426.333" y2="145.557"/>
<line fill="none" stroke="#010101" stroke-dasharray="2,1" x1="418.583" y1="148.887" x2="426.333" y2="148.887"/>
<text transform="matrix(1 0 0 1 418.583 141.0571)" fill="#010101" font-family="'MyriadPro-It'" font-size="8">r</text>
<text transform="matrix(0.583 0 0 0.583 421.127 143.7212)" fill="#010101" font-family="'MyriadPro-It'" font-size="8">g1</text>
<text transform="matrix(1 0 0 1 481.792 184.3188)" fill="#010101" font-family="'MyriadPro-It'" font-size="12">r</text>
<text transform="matrix(0.583 0 0 0.583 485.6074 188.3149)" fill="#010101" font-family="'MyriadPro-It'" font-size="12">g1 </text>
<text transform="matrix(1 0 0 1 493.9883 184.3188)" fill="#010101" font-family="'MyriadPro-Regular'" font-size="12">=</text>
<text transform="matrix(1 0 0 1 501.1406 184.3188)" fill="#010101" font-family="'MyriadPro-It'" font-size="12"> dr</text>
<circle fill="#F15C27" stroke="#010101" cx="144.958" cy="349.057" r="15.558"/>
<circle fill="#ED2224" stroke="#010101" cx="144.958" cy="349.057" r="7.75"/>
<line fill="none" stroke="#010101" x1="152.708" y1="349.057" x2="152.708" y2="321.557"/>
<line fill="none" stroke="#010101" x1="160.516" y1="349.057" x2="160.516" y2="297.891"/>
<line fill="none" stroke="#010101" stroke-dasharray="2,1" x1="152.875" y1="324.223" x2="160.625" y2="324.223"/>
<text transform="matrix(1 0 0 1 151.875 319.7246)" fill="#010101" font-family="'MyriadPro-It'" font-size="8">dr</text>
<line fill="none" stroke="#010101" x1="144.958" y1="349.057" x2="144.958" y2="297.891"/>
<line fill="none" stroke="#010101" stroke-dasharray="2,1" x1="145.042" y1="302.223" x2="160.625" y2="302.223"/>
<text transform="matrix(1 0 0 1 148.9165 296.8745)" fill="#010101" font-family="'MyriadPro-It'" font-size="8">r</text>
<text transform="matrix(0.583 0 0 0.583 151.4604 299.5386)" fill="#010101" font-family="'MyriadPro-It'" font-size="8">g1</text>
<text transform="matrix(1 0 0 1 221.792 374.3184)" fill="#010101" font-family="'MyriadPro-It'" font-size="12">r</text>
<text transform="matrix(0.583 0 0 0.583 225.6079 378.3145)" fill="#010101" font-family="'MyriadPro-It'" font-size="12">g1 </text>
<text transform="matrix(1 0 0 1 233.9888 374.3184)" fill="#010101" font-family="'MyriadPro-Regular'" font-size="12">=</text>
<text transform="matrix(1 0 0 1 241.1406 374.3184)" fill="#010101" font-family="'MyriadPro-It'" font-size="12"> 2dr</text>
<circle fill="#F79421" stroke="#010101" cx="418.583" cy="349.057" r="23.235"/>
<circle fill="#F15C27" stroke="#010101" cx="418.583" cy="349.057" r="15.558"/>
<circle fill="#ED2224" stroke="#010101" cx="418.583" cy="349.057" r="7.75"/>
<line fill="none" stroke="#010101" x1="441.818" y1="349.807" x2="441.818" y2="299.149"/>
<line fill="none" stroke="#010101" x1="418.584" y1="349.057" x2="418.584" y2="297.891"/>
<line fill="none" stroke="#010101" stroke-dasharray="2,1" x1="418.584" y1="303.481" x2="441.818" y2="303.481"/>
<text transform="matrix(1 0 0 1 427.959 297.8906)" fill="#010101" font-family="'MyriadPro-It'" font-size="8">r</text>
<text transform="matrix(0.583 0 0 0.583 430.502 300.5547)" fill="#010101" font-family="'MyriadPro-It'" font-size="8">g1</text>
<text transform="matrix(1 0 0 1 467.458 369.9854)" fill="#010101" font-family="'MyriadPro-It'" font-size="12">r</text>
<text transform="matrix(0.583 0 0 0.583 471.2734 373.9814)" fill="#010101" font-family="'MyriadPro-It'" font-size="12">g1 </text>
<text transform="matrix(1 0 0 1 479.6543 369.9854)" fill="#010101" font-family="'MyriadPro-Regular'" font-size="12">=</text>
<text transform="matrix(1 0 0 1 486.8066 369.9854)" fill="#010101" font-family="'MyriadPro-It'" font-size="12"> r</text>
<text transform="matrix(0.583 0 0 0.583 492.8066 373.9814)" fill="#010101" font-family="'MyriadPro-It'" font-size="12">G1 </text>
<text transform="matrix(1 0 0 1 501.8809 369.9854)" fill="#010101" font-family="'MyriadPro-It'" font-size="12">- r</text>
<text transform="matrix(0.583 0 0 0.583 511.5645 373.9814)" fill="#010101" font-family="'MyriadPro-It'" font-size="12">G2</text>
<circle fill="#F79421" stroke="#010101" cx="520.068" cy="337.975" r="7.75"/>
<circle fill="#F79421" stroke="#010101" cx="418.583" cy="349.057" r="23.235"/>
<circle fill="#F15C27" stroke="#010101" cx="418.583" cy="349.057" r="15.558"/>
<circle fill="#ED2224" stroke="#010101" cx="418.583" cy="349.057" r="7.75"/>
<circle fill="#F79421" stroke="#010101" cx="520.068" cy="337.975" r="7.75"/>
<line fill="none" stroke="#010101" x1="520.068" y1="337.375" x2="520.068" y2="321.875"/>
<line fill="none" stroke="#010101" x1="527.818" y1="337.375" x2="527.818" y2="321.875"/>
<line fill="none" stroke="#010101" stroke-dasharray="2,1" x1="520.068" y1="325.205" x2="527.818" y2="325.205"/>
<text transform="matrix(1 0 0 1 520.0684 317.376)" fill="#010101" font-family="'MyriadPro-It'" font-size="8">r</text>
<text transform="matrix(0.583 0 0 0.583 522.6123 320.04)" fill="#010101" font-family="'MyriadPro-It'" font-size="8">g2</text>
<circle fill="#F79421" stroke="#010101" cx="144.958" cy="538.057" r="23.235"/>
<circle fill="#F15C27" stroke="#010101" cx="144.958" cy="538.057" r="15.558"/>
<circle fill="#ED2224" stroke="#010101" cx="144.958" cy="538.057" r="7.75"/>
<circle fill="#FAED24" stroke="#010101" cx="246.443" cy="526.975" r="15.558"/>
<circle fill="#F79421" stroke="#010101" cx="246.443" cy="526.975" r="7.75"/>
<path fill="#FFFFFF" stroke="#010101" stroke-width="2" d="M43.625,576.057"/>
<path fill="#FFFFFF" stroke="#010101" stroke-width="2" d="M295.625,576.057"/>
<circle fill="#FAED24" stroke="#010101" cx="155.363" cy="474.641" r="7.75"/>
<radialGradient id="SVGID_1_" cx="362.417" cy="461.8906" r="17.5" gradientUnits="userSpaceOnUse">
	<stop  offset="0" style="stop-color:#EA773D"/>
	<stop  offset="1" style="stop-color:#FEF04C"/>
</radialGradient>
<circle fill="url(#SVGID_1_)" stroke="#010101" cx="362.417" cy="461.891" r="17.5"/>
<radialGradient id="SVGID_2_" cx="418.583" cy="538.0576" r="28.333" gradientUnits="userSpaceOnUse">
	<stop  offset="0" style="stop-color:#E42037"/>
	<stop  offset="1" style="stop-color:#FEF04C"/>
</radialGradient>
<circle fill="url(#SVGID_2_)" stroke="#010101" cx="418.583" cy="538.058" r="28.333"/>
<radialGradient id="SVGID_3_" cx="480.417" cy="475.0576" r="13.167" gradientUnits="userSpaceOnUse">
	<stop  offset="0" style="stop-color:#F1B142"/>
	<stop  offset="1" style="stop-color:#FEF04C"/>
</radialGradient>
<circle fill="url(#SVGID_3_)" stroke="#010101" cx="480.417" cy="475.058" r="13.167"/>
<radialGradient id="SVGID_4_" cx="521.5" cy="526.9746" r="21.25" gradientUnits="userSpaceOnUse">
	<stop  offset="0" style="stop-color:#E6563A"/>
	<stop  offset="1" style="stop-color:#FEF04C"/>
</radialGradient>
<circle fill="url(#SVGID_4_)" stroke="#010101" cx="521.5" cy="526.975" r="21.25"/>
<radialGradient id="SVGID_5_" cx="428.833" cy="474.6396" r="18.083" gradientUnits="userSpaceOnUse">
	<stop  offset="0" style="stop-color:#EA773D"/>
	<stop  offset="1" style="stop-color:#FEF04C"/>
</radialGradient>
<circle fill="url(#SVGID_5_)" stroke="#010101" cx="428.833" cy="474.64" r="18.083"/>
<radialGradient id="SVGID_6_" cx="518.25" cy="445.5566" r="7.5" gradientUnits="userSpaceOnUse">
	<stop  offset="0" style="stop-color:#F5CF42"/>
	<stop  offset="1" style="stop-color:#FEF04C"/>
</radialGradient>
<circle fill="url(#SVGID_6_)" stroke="#010101" cx="518.25" cy="445.557" r="7.5"/>
<radialGradient id="SVGID_7_" cx="350.083" cy="530.3896" r="12.333" gradientUnits="userSpaceOnUse">
	<stop  offset="0" style="stop-color:#F1B142"/>
	<stop  offset="1" style="stop-color:#FEF04C"/>
</radialGradient>
<circle fill="url(#SVGID_7_)" stroke="#010101" cx="350.083" cy="530.39" r="12.333"/>
<radialGradient id="SVGID_8_" cx="410.75" cy="432.5566" r="15.75" gradientUnits="userSpaceOnUse">
	<stop  offset="0" style="stop-color:#EA773D"/>
	<stop  offset="1" style="stop-color:#FEF04C"/>
</radialGradient>
<circle fill="url(#SVGID_8_)" stroke="#010101" cx="410.75" cy="432.557" r="15.75"/>
<text transform="matrix(1 0 0 1 200.458 561.292)" fill="#010101" font-family="'MyriadPro-It'" font-size="12">r</text>
<text transform="matrix(0.583 0 0 0.583 204.2739 565.2881)" fill="#010101" font-family="'MyriadPro-It'" font-size="12">g2 </text>
<text transform="matrix(1 0 0 1 212.6548 561.292)" fill="#010101" font-family="'MyriadPro-Regular'" font-size="12">=</text>
<text transform="matrix(1 0 0 1 219.8066 561.292)" fill="#010101" font-family="'MyriadPro-It'" font-size="12"> r</text>
<text transform="matrix(0.583 0 0 0.583 225.8066 565.2881)" fill="#010101" font-family="'MyriadPro-It'" font-size="12">G2 </text>
<text transform="matrix(1 0 0 1 234.8804 561.292)" fill="#010101" font-family="'MyriadPro-It'" font-size="12">- r</text>
<text transform="matrix(0.583 0 0 0.583 244.564 565.2881)" fill="#010101" font-family="'MyriadPro-It'" font-size="12">G3</text>
<text transform="matrix(1 0 0 1 330.125 58.2236)" fill="#010101" font-family="'MyriadPro-Bold'" font-size="14">1</text>
<text transform="matrix(1 0 0 1 55.5098 246.1143)" fill="#010101" font-family="'MyriadPro-Bold'" font-size="14">2</text>
<text transform="matrix(1 0 0 1 330.125 242.6143)" fill="#010101" font-family="'MyriadPro-Bold'" font-size="14">3 &amp; 4</text>
<line fill="none" stroke="#010101" x1="418.583" y1="538.391" x2="426.5" y2="538.391"/>
<line fill="none" stroke="#010101" x1="418.583" y1="536.057" x2="418.583" y2="540.057"/>
<text transform="matrix(1 0 0 1 428.25 540.0566)" fill="#010101" font-family="'MyriadPro-It'" font-size="8">r</text>
<text transform="matrix(0.583 0 0 0.583 430.7939 542.7207)" fill="#010101" font-family="'MyriadPro-It'" font-size="8">g1</text>
<line fill="none" stroke="#010101" x1="436.994" y1="538.391" x2="446.917" y2="538.391"/>
<text transform="matrix(1 0 0 1 468.458 563.7354)" fill="#010101" font-family="'MyriadPro-It'" font-size="12">r</text>
<text transform="matrix(0.583 0 0 0.583 472.2734 567.7314)" fill="#010101" font-family="'MyriadPro-It'" font-size="12">g1 </text>
<text transform="matrix(1 0 0 1 480.6543 563.7354)" fill="#010101" font-family="'MyriadPro-Regular'" font-size="12">=</text>
<text transform="matrix(1 0 0 1 487.8066 563.7354)" fill="#010101" font-family="'MyriadPro-It'" font-size="12"> r</text>
<text transform="matrix(0.583 0 0 0.583 493.8066 567.7314)" fill="#010101" font-family="'MyriadPro-It'" font-size="12">G1</text>
<text transform="matrix(1 0 0 1 51.625 432.5576)" fill="#010101" font-family="'MyriadPro-Bold'" font-size="14">5</text>
<text transform="matrix(1 0 0 1 330.125 432.5576)" fill="#010101" font-family="'MyriadPro-Bold'" font-size="14">6</text>
</svg>
